<?xml version="1.0" encoding="utf-8"?>
<!-- Generator: Adobe Illustrator 25.4.1, SVG Export Plug-In . SVG Version: 6.00 Build 0)  -->
<svg version="1.1" id="Capa_1" xmlns="http://www.w3.org/2000/svg" xmlns:xlink="http://www.w3.org/1999/xlink" x="0px" y="0px"
	 viewBox="0 0 180.86 379.35" style="enable-background:new 0 0 180.86 379.35;" xml:space="preserve">
<style type="text/css">
	.st0{fill:#312783;}
	.st1{fill:url(#SVGID_1_);}
	.st2{fill:#E30613;}
	.st3{opacity:0.35;}
	.st4{fill:url(#SVGID_00000052799291536176053880000013022894658852033724_);}
	.st5{fill:url(#SVGID_00000109031952570871311820000001961947288026780805_);}
	.st6{fill:url(#SVGID_00000026125715357538074710000000130025130564564114_);}
	.st7{fill:url(#SVGID_00000159443885468438233590000007355275768925324454_);}
	.st8{fill:none;}
	.st9{fill:#009FE3;}
	.st10{fill:url(#SVGID_00000176005882481098808400000011993830715297909676_);}
	.st11{fill:#FBB936;}
	.st12{fill:url(#SVGID_00000021113512727200178600000011004388512334291880_);}
	.st13{fill:url(#SVGID_00000182521626160811654770000017225635201259026059_);}
	.st14{fill:url(#SVGID_00000120523468306382892680000012014430832898095488_);}
	.st15{fill:url(#SVGID_00000030458255788903449810000014546239272209870730_);}
	.st16{fill:url(#SVGID_00000152254342309008381220000012257333292354897560_);}
	.st17{fill:url(#SVGID_00000078731420575051699550000001099959710640954011_);}
	.st18{fill:url(#SVGID_00000070107439121110146510000007547985293568545410_);}
	.st19{fill:url(#SVGID_00000127744549920887939500000005820342317107147162_);}
	.st20{fill:#FFFFFF;}
	.st21{fill:#3CB4E5;}
	.st22{fill:#C8A977;}
	.st23{fill:none;stroke:#A19821;stroke-width:1.835;stroke-miterlimit:10;}
	.st24{fill:#000F9F;}
</style>
<g>
	<g>
		<g>
			<g>
				<ellipse class="st20" cx="90.3" cy="113.61" rx="57.76" ry="86.7"/>
				<path class="st21" d="M90.3,26.91c-31.86,0-57.76,38.72-57.76,86.32c0,2.06,0.05,4.02,0.14,6.06c0.13,1.72,0.96,2.92,2.46,3.69
					c0,0,0.35,0.17,0.57,0.27c0.03,0.01,0.77,0.32,1.04,0.41c8.57,2.85,22.75,5.08,31.33,5.86c3.15,0.29,5.55,0.37,6.64,0.23
					c3.45-0.47,5.77-0.84,9.28-4.36c0.08-0.08,0.16-0.16,0.24-0.24c0.04-0.04,0.86-0.97,0.96-1.08c0.28-0.35,0.54-0.71,0.78-1.09
					c0.5-0.77,0.95-1.7,1.28-2.55c0.59-1.48,0.85-3.52,0.88-5.33c0-0.11,0.01-0.22,0.01-0.33v-2.7V96.7c0-0.43,0-0.86,0-1.29
					c0.01-0.41,0.28-0.82,0.94-0.6c0.01,0.01,1.61,0.58,2.45,0.89c0.77,0.3,0.94,0.36,0.94,1.51c0,0.25,0,3.61,0,7.32
					c0,0.42,0,0.84,0,1.27v3.18v5.78c0,0.11,0,0.22,0.01,0.33c0.01,0.65,0.05,1.34,0.13,2.02c0,0.04,0.01,0.09,0.01,0.13
					c0.02,0.17,0.04,0.33,0.07,0.49c0.01,0.07,0.02,0.14,0.03,0.21c0.03,0.18,0.06,0.36,0.1,0.54c0.01,0.03,0.01,0.07,0.02,0.1
					c0.13,0.66,0.3,1.28,0.52,1.83c0.34,0.85,0.79,1.78,1.28,2.55c0.24,0.37,0.5,0.74,0.78,1.09c0.09,0.12,0.92,1.04,0.96,1.08
					c0.08,0.08,0.16,0.16,0.24,0.24c3.51,3.52,5.83,3.89,9.28,4.36c0.73,0.1,1.48,0.08,2.21,0.06c0.44-0.01,0.88-0.03,1.33-0.06
					c0.38-0.02,0.76-0.05,1.14-0.07c0.42-0.03,0.83-0.06,1.25-0.1c0.45-0.04,0.9-0.08,1.35-0.12c0.48-0.05,0.96-0.09,1.44-0.15
					c0.51-0.05,1.01-0.11,1.51-0.17c0.53-0.06,1.06-0.12,1.58-0.19c0.55-0.07,1.09-0.14,1.64-0.21c0.56-0.08,1.13-0.15,1.69-0.23
					c0.58-0.08,1.15-0.17,1.73-0.25c0.59-0.09,1.17-0.18,1.76-0.27c0.59-0.09,1.19-0.19,1.78-0.29c0.6-0.1,1.19-0.2,1.79-0.31
					c0.6-0.11,1.19-0.21,1.79-0.33c0.59-0.11,1.19-0.23,1.78-0.34c0.59-0.12,1.18-0.24,1.76-0.36c0.58-0.12,1.16-0.25,1.73-0.37
					c0.57-0.13,1.13-0.25,1.69-0.39c0.55-0.13,1.1-0.26,1.65-0.4c0.53-0.13,1.06-0.27,1.59-0.41c0.51-0.14,1.02-0.28,1.52-0.43
					c0.48-0.14,0.96-0.29,1.44-0.44c0.27-0.08,0.53-0.17,0.8-0.26c0.27-0.09,1.19-0.48,1.3-0.53c0.08-0.04,0.16-0.07,0.21-0.1
					c1.6-0.8,2.48-1.89,2.57-3.74c0.1-1.98,0.15-4.05,0.15-6.06C148.06,65.63,122.15,26.91,90.3,26.91z"/>
				<path class="st22" d="M141.99,147.4l-2.93-0.62c-24.26-4.76-38.63-5.31-42.59-4.51c-2.26,0.45-3.88,1.36-4.01,4.24
					c0,4.97,0,9.13,0,10.71c0,0.13-0.11,0.24-0.24,0.26c-1.82,0.25-2.15,0.24-3.74,0.72c-0.17,0.05-0.35-0.07-0.35-0.25l0-11.43
					c-0.17-2.76-1.61-3.64-3.84-4.09c-3.96-0.79-18.32-0.25-42.58,4.51c0,0-2.77,0.6-2.82,0.6c-1.52,0.25-1.65,0.56-1.24,1.92
					c6.46,21.4,18.6,38.17,33.53,46.04c0.07,0.03,0.13,0.07,0.2,0.11c0.11,0.05,0.22,0.11,0.32,0.17c0.2,0.1,0.39,0.2,0.59,0.29
					c0.01,0.01,0.01,0.01,0.02,0.01c5.69,2.81,11.76,4.32,18.07,4.32c13.93,0,26.72-7.4,36.7-19.7c-0.02,0-0.04,0-0.05,0
					c6.89-8.48,12.45-19.29,16.12-31.63C143.45,147.93,143.28,147.62,141.99,147.4z"/>
				<path class="st22" d="M118.93,29.6c0.3,0.22,0.92,0.05,0.92-0.64C119.56,12.94,106.44,0,90.36,0
					C74.28,0,61.17,12.93,60.88,28.94v0c0,0.71,0.62,0.88,0.92,0.66h0c8.73-6.43,18.46-9.83,28.56-9.83
					C100.47,19.77,110.19,23.17,118.93,29.6L118.93,29.6z"/>
				<path class="st24" d="M23.5,112.45c0-33.31,11.13-62.77,28.21-80.79c0.01-0.01,0.66-0.7,0.81-1.91
					c0.61-5.04,2.19-9.79,4.55-14.05c0.01-0.03,0.02-0.06,0.04-0.09c1.27-2.47,1.44-3.78-1.04-2.07
					c-25.76,18.07-43.46,55.54-43.46,98.85c0,49.75,23.36,91.81,55.47,105.58c0.79,0.34,1.67-0.26,1.67-1.12v-9.36
					c0-0.45-0.26-0.86-0.66-1.07C42.57,193.07,23.5,156.04,23.5,112.45z"/>
				<path class="st24" d="M168.25,112.5c0-43.28-17.68-80.74-43.41-98.82c-2.51-1.76-2.37-0.5-1.15,1.92
					c2.46,4.37,4.09,9.26,4.69,14.46c0.15,0.86,0.54,1.42,0.7,1.62c0.02,0.03,0.04,0.05,0.07,0.08
					c17.09,18.01,28.22,47.48,28.22,80.8c0,43.53-19.01,80.51-45.47,93.92c-0.48,0.24-0.78,0.73-0.78,1.26v8.9
					c0,1.02,1.04,1.72,1.97,1.32C145.03,204.05,168.25,162.1,168.25,112.5z"/>
				<g>
					<path class="st20" d="M82.71,161.69c0,0-0.14-0.23-0.39-0.55c0,0,0,0.01,0,0.01c-1.52-1.95-2.92-2.11-3.41-2.1
						c-0.11,0-0.21,0.07-0.24,0.17c-0.68,2.25,1.61,4.4,1.61,4.4c-1.5,1.42-1.19,3.91-1.03,4.74c0.03,0.15,0.18,0.23,0.33,0.18
						c3.16-1.13,3.53-3.33,3.57-3.81c0.48,0.07,2.71,0.21,4.52-2.63c0.08-0.13,0.03-0.3-0.11-0.36
						C86.78,161.41,84.43,160.55,82.71,161.69z"/>
					<circle class="st20" cx="90.73" cy="186.81" r="8.88"/>
					<path class="st20" d="M94.25,165.88c-0.01-0.11-0.03-0.22-0.04-0.34c-0.08-1.37,0.4-2.64,1.23-3.6
						c-0.52-1.17-1.71-1.97-3.07-1.89c-1.75,0.1-3.09,1.6-2.99,3.35c0.03,0.59,0.23,1.12,0.54,1.58c1.4,0.07,2.71,0.48,3.87,1.15
						C93.95,166.05,94.1,165.97,94.25,165.88z"/>
					<path class="st20" d="M104.49,165.19c0-2.42-1.96-4.38-4.38-4.38c-2.42,0-4.38,1.96-4.38,4.38c0,2.3,1.77,4.16,4.03,4.34
						c1.06-0.8,2.32-1.34,3.69-1.54C104.09,167.24,104.49,166.27,104.49,165.19z"/>
					<path class="st20" d="M102.79,169.4c-2.81,0.61-5.03,2.93-5.51,5.77c-0.22,1.27-0.1,2.49,0.28,3.58
						c0.06,0.05,0.11,0.11,0.17,0.17c0.15,0.14,0.3,0.28,0.45,0.43c0.11,0.11,0.21,0.23,0.31,0.34c0.15,0.17,0.29,0.34,0.43,0.52
						c0.05,0.06,0.09,0.12,0.13,0.18c0.42,0.57,0.79,1.19,1.09,1.84c1.57,1.15,3.6,1.68,5.75,1.23c2.86-0.6,5.13-2.96,5.59-5.85
						C112.28,172.56,107.8,168.32,102.79,169.4z"/>
					<path class="st20" d="M91.94,176.24c1.26,0.12,2.45,0.47,3.53,1.03c-0.02-0.23-0.03-0.46-0.03-0.69c0-1.45,0.33-2.83,0.91-4.06
						c-0.57-3.62-3.66-6.39-7.38-6.39c-4.13,0-7.48,3.4-7.48,7.58c0,2.03,0.8,3.87,2.09,5.23c1.86-1.72,4.34-2.79,7.08-2.79
						C91.09,176.15,91.52,176.18,91.94,176.24z"/>
					<path class="st20" d="M82.23,180.45c-1.49-1.62-2.38-3.73-2.43-5.95c-0.03-1.23,0.19-2.41,0.61-3.49
						c-1.05-0.4-2.19-0.62-3.38-0.59c-4.9,0.11-8.79,4.18-8.67,9.09c0.11,4.9,4.18,8.79,9.09,8.67c1-0.02,1.95-0.22,2.84-0.55
						c-0.03-0.35-0.05-0.7-0.05-1.06C80.23,184.28,80.98,182.17,82.23,180.45z"/>
				</g>
				<path class="st20" d="M108.35,146.53c-0.28-0.17-0.55,0.2-0.33,0.43c5.97,6.17-5.26,8.59-10.73,9.51c0,0,0,0,0,0
					c0,0.01-0.01,0.01-0.01,0.02c-0.07,0.01-0.12,0.04-0.16,0.09c-0.04,0.05-0.07,0.11-0.07,0.18c0,0.07,0.03,0.12,0.07,0.17
					c0.03,0.05,0.08,0.07,0.13,0.09l0,0c0,0.01,0.01,0.01,0.01,0.03c0.02,0,0.04,0,0.06,0c0.01,0,0.01,0.01,0.02,0.01
					c0.01,0,0.01-0.01,0.01-0.01c0.75,0.03,1.47,0.11,2.2,0.22c10.64,1.64,17.94,11.59,16.3,22.22c-0.32,2.1-0.98,4.07-1.9,5.87
					c-0.14,0.28,0.24,0.54,0.45,0.31C134.21,164.86,115.26,150.7,108.35,146.53z"/>
				<path class="st20" d="M101.92,70.11c-0.04-0.16-0.2-0.27-0.36-0.25c-3.23,0.31-6.16,1.4-9.99,2.84
					c-0.2,0.08-0.41,0.15-0.61,0.22c-0.2,0.07-0.41,0.14-0.62,0.21c-0.21,0.07-0.41,0.14-0.62,0.2c-0.21,0.07-0.41,0.13-0.62,0.19
					c-0.21,0.06-0.41,0.12-0.62,0.19c-0.05,0.02-0.1,0.03-0.16,0.05c-1.92,2.66-5.03,4.39-8.56,4.39c-0.4,0-0.8-0.03-1.19-0.07
					c-1.35,3.89-3.83,10.99-3.83,10.99c-0.18,0.63,0.22,0.88,0.62,0.88c6.91-1.09,11.37,0.6,18.26,3.21
					c5.65,2.13,11.91,3.16,14.36,3.51c0.01,0,0.02,0,0.04,0c0.67,0.07,0.86-0.35,0.79-0.74L101.92,70.11z"/>
				<path class="st20" d="M100.26,64.32c-2.4-3.28-5.32-4.89-5.32-4.89c-2.76-1.67-5.5-2.25-8.05-2.2c-1.86,0-3.89,0.33-5.94,1.04
					c-2.14,0.74-4.15,1.88-6,3.19c-1.08,0.77-2.23,1.63-3.01,2.72c-0.6,0.83-0.99,1.79-1.14,2.8c-0.04,0.3-0.07,0.61-0.07,0.92
					c0,3.53,2.86,6.39,6.39,6.39c2.89,0,5.33-1.92,6.12-4.55c2.36-0.48,5.28-1.2,8.03-2.23c3.34-1.27,6.01-2.26,8.78-2.7
					C100.28,64.77,100.39,64.51,100.26,64.32z"/>
				<path class="st21" d="M94.99,218.87l-3.93-0.05c-0.08,0-0.16,0-0.24,0l-5.21,0.02l1.59,6.28c0.06,0.22,0.25,0.37,0.48,0.37
					l3.2-0.01c0.04,0,0.08,0,0.12,0l1.92,0.02c0.23,0,0.43-0.15,0.48-0.37L94.99,218.87z"/>
				<path class="st21" d="M98.4,205.43c0.08-0.31-0.15-0.61-0.47-0.61l-6.87-0.09c-0.08,0-0.16,0-0.25,0l-8.16,0.03
					c-0.32,0-0.55,0.3-0.47,0.61l1.63,6.43l7.06-0.02c0.04,0,0.08,0,0.12,0l5.77,0.08L98.4,205.43z"/>
				<path class="st20" d="M96.78,211.84l-5.71-0.08c-0.08,0-0.16,0-0.25,0l-7,0.03l1.79,7.04l5.28-0.02c0.04,0,0.08,0,0.12,0
					l3.99,0.05L96.78,211.84z"/>
				<g>
					<path class="st21" d="M82.53,213.52l-1.7-6.67c-0.06-0.22-0.25-0.37-0.48-0.37h-5.09c-0.38,0.03-0.67,0.36-0.67,0.74v6.3H82.53
						z"/>
					<polygon class="st20" points="84.32,220.57 82.53,213.52 74.59,213.52 74.59,220.57 					"/>
					<path class="st21" d="M84.32,220.57h-9.74v5.94c0,0.43,0.36,0.76,0.79,0.73l10.01-0.03c0.32,0,0.55-0.3,0.47-0.61L84.32,220.57
						z"/>
				</g>
				<g>
					<path class="st21" d="M98.09,213.52l1.7-6.67c0.06-0.22,0.25-0.37,0.48-0.37h5.09c0.38,0.03,0.67,0.36,0.67,0.74v6.3H98.09z"/>
					<polygon class="st20" points="96.29,220.57 98.09,213.52 106.03,213.52 106.03,220.57 					"/>
					<path class="st21" d="M96.29,220.57h9.74v5.94c0,0.43-0.36,0.76-0.79,0.73l-10.01-0.03c-0.32,0-0.55-0.3-0.47-0.61
						L96.29,220.57z"/>
				</g>
			</g>
		</g>
		<g>
			<g>
				<path class="st24" d="M23.95,262.87V246.2h3.84l5.98,8.62h0.05l6.14-8.62h3.81v16.66h-3.94v-10.4l-4.6,6.36h-2.86l-4.53-6.36
					v10.4H23.95z"/>
				<path class="st24" d="M47.66,262.87V246.2h13.73v3.21h-9.77v3.4h8.75v3.07h-8.75v3.74h9.95v3.24H47.66z"/>
				<path class="st24" d="M64.43,262.87V246.2h3.48l9,9.97h0.05v-9.97h3.94v16.66h-3.2l-9.29-10.38h-0.05v10.38H64.43z"/>
				<path class="st24" d="M84.79,262.87V246.2h6.8c1.93,0,3.61,0.31,5.04,0.94c1.43,0.63,2.55,1.56,3.35,2.8
					c0.8,1.24,1.2,2.78,1.2,4.62c0,1.75-0.4,3.24-1.19,4.49c-0.79,1.25-1.92,2.19-3.39,2.84c-1.47,0.65-3.21,0.98-5.22,0.98H84.79z
					 M88.76,259.63h2.74c1.24,0,2.28-0.19,3.11-0.58c0.83-0.39,1.45-0.96,1.88-1.71c0.43-0.75,0.64-1.68,0.64-2.77
					c0-1.19-0.2-2.16-0.61-2.92c-0.41-0.75-1.03-1.31-1.85-1.67c-0.83-0.36-1.88-0.54-3.16-0.54h-2.74V259.63z"/>
				<path class="st24" d="M112.75,263.11c-1.88,0-3.5-0.36-4.88-1.08c-1.38-0.72-2.45-1.73-3.2-3.01c-0.75-1.29-1.12-2.79-1.12-4.5
					c0-1.71,0.39-3.21,1.16-4.49s1.86-2.27,3.24-2.99c1.38-0.71,2.98-1.07,4.81-1.07c1.89,0,3.53,0.36,4.9,1.08
					c1.37,0.72,2.43,1.72,3.18,3c0.75,1.28,1.12,2.77,1.12,4.49c0,1.71-0.38,3.21-1.15,4.5c-0.77,1.29-1.85,2.29-3.24,3
					C116.18,262.75,114.57,263.11,112.75,263.11z M112.75,259.68c1.04,0,1.95-0.19,2.71-0.56c0.77-0.37,1.36-0.94,1.79-1.71
					c0.43-0.77,0.64-1.73,0.64-2.89s-0.21-2.12-0.63-2.87c-0.42-0.75-1.01-1.32-1.78-1.69c-0.77-0.37-1.68-0.56-2.74-0.56
					c-1.02,0-1.92,0.19-2.7,0.56c-0.78,0.37-1.38,0.94-1.8,1.7c-0.43,0.76-0.64,1.72-0.64,2.88c0,1.16,0.21,2.12,0.63,2.88
					c0.42,0.76,1.01,1.33,1.78,1.7C110.78,259.49,111.69,259.68,112.75,259.68z"/>
				<path class="st24" d="M124.13,262.87v-2.57l9.39-10.86h-9.21v-3.24h14.5v2.69l-9.21,10.74h9.39v3.24H124.13z"/>
				<path class="st24" d="M140.27,262.87l6.83-16.66h4.55l6.88,16.66h-4.3l-4.83-12.78h-0.08l-4.94,12.78H140.27z M145,259.82v-3.05
					h8.7v3.05H145z"/>
			</g>
			<g>
				<path class="st24" d="M23.71,285.44l6.1-14.36h2.78l6.15,14.36h-2.58l-4.94-12.1h-0.07l-5.03,12.1H23.71z M27.08,282.26v-1.93
					h8.2v1.93H27.08z"/>
				<path class="st24" d="M40.9,285.44v-14.36h6.72c1.12,0,2.08,0.17,2.89,0.5c0.81,0.33,1.44,0.82,1.89,1.45
					c0.45,0.63,0.67,1.4,0.67,2.32c0,0.73-0.14,1.37-0.42,1.93s-0.68,1.03-1.2,1.4c-0.52,0.38-1.16,0.66-1.91,0.86
					c-0.75,0.2-1.6,0.3-2.56,0.3h-3.75v5.6H40.9z M43.23,277.93h4.23c1.01,0,1.8-0.22,2.37-0.67c0.56-0.45,0.85-1.08,0.85-1.92
					c0-0.79-0.28-1.38-0.85-1.76c-0.57-0.38-1.38-0.57-2.44-0.57h-4.16V277.93z M51.21,285.44l-3.97-5.95l2.23-0.45l4.36,6.4H51.21z
					"/>
				<path class="st24" d="M64.65,285.64c-1.89,0-3.51-0.29-4.86-0.88s-2.37-1.44-3.09-2.54c-0.71-1.11-1.07-2.43-1.07-3.98
					c0-1.2,0.22-2.26,0.66-3.18c0.44-0.92,1.05-1.69,1.84-2.31c0.79-0.62,1.7-1.09,2.74-1.4c1.04-0.31,2.15-0.47,3.33-0.47
					c0.69,0,1.39,0.06,2.08,0.17c0.7,0.12,1.38,0.29,2.04,0.52l0.71,0.24l-0.44,1.7l-0.82-0.18c-0.62-0.15-1.22-0.26-1.81-0.34
					c-0.59-0.07-1.15-0.11-1.7-0.11c-1.19,0-2.26,0.2-3.2,0.59c-0.94,0.4-1.68,0.99-2.23,1.78c-0.54,0.79-0.82,1.79-0.82,2.99
					c0,1.18,0.26,2.17,0.78,2.98c0.52,0.81,1.28,1.43,2.27,1.85c0.99,0.42,2.19,0.63,3.58,0.63c0.48,0,1-0.03,1.54-0.1
					c0.54-0.07,1.08-0.17,1.61-0.31v-3.77h-4.65v-1.93h6.99v6.81c-0.53,0.23-1.1,0.45-1.71,0.64c-0.61,0.19-1.24,0.34-1.88,0.44
					C65.92,285.59,65.28,285.64,64.65,285.64z"/>
				<path class="st24" d="M73.55,285.44v-14.36h11.35v1.93h-9.01v4.12h8.13v1.93h-8.13v4.45h9.17v1.93H73.55z"/>
				<path class="st24" d="M87.99,285.44v-14.36h2.05l9.23,10.26h0.04v-10.26h2.34v14.36h-1.83l-9.48-10.58H90.3v10.58H87.99z"/>
				<path class="st24" d="M109.76,285.44v-12.43h-5.49v-1.93h13.29v1.93h-5.44v12.43H109.76z"/>
				<path class="st24" d="M120.19,285.44v-14.36h2.34v14.36H120.19z"/>
				<path class="st24" d="M126.45,285.44v-14.36h2.05l9.24,10.26h0.04v-10.26h2.34v14.36h-1.83l-9.48-10.58h-0.04v10.58H126.45z"/>
				<path class="st24" d="M142.27,285.44l6.1-14.36h2.78l6.15,14.36h-2.58l-4.94-12.1h-0.07l-5.02,12.1H142.27z M145.64,282.26
					v-1.93h8.2v1.93H145.64z"/>
			</g>
		</g>
	</g>
	<g>
		<g>
			<path class="st21" d="M26.34,354.74c-0.67,0-1.29-0.05-1.89-0.14c-0.59-0.09-1.15-0.21-1.66-0.35l-1.05-0.3l0.37-1.75l1.26,0.21
				c0.43,0.08,0.92,0.15,1.47,0.2s1.04,0.08,1.49,0.08c0.83,0,1.45-0.13,1.86-0.39c0.41-0.26,0.62-0.65,0.62-1.16
				c0-0.26-0.07-0.48-0.2-0.67s-0.4-0.38-0.8-0.57s-0.99-0.4-1.78-0.63c-0.98-0.29-1.76-0.58-2.33-0.87
				c-0.58-0.29-0.99-0.65-1.24-1.07c-0.25-0.42-0.38-0.96-0.38-1.63c0-0.84,0.21-1.52,0.64-2.04s1-0.9,1.73-1.15
				c0.73-0.25,1.54-0.37,2.44-0.37c0.52,0,1.07,0.04,1.63,0.12s1.12,0.2,1.67,0.35l0.73,0.19l-0.33,1.73l-1.03-0.14
				c-0.4-0.06-0.82-0.11-1.26-0.17c-0.44-0.05-0.88-0.08-1.29-0.08c-0.86,0-1.51,0.13-1.95,0.38c-0.44,0.25-0.66,0.63-0.66,1.15
				c0,0.26,0.07,0.47,0.22,0.64c0.15,0.17,0.43,0.33,0.85,0.48s1.04,0.34,1.85,0.58c0.97,0.26,1.73,0.54,2.3,0.86
				c0.57,0.32,0.97,0.69,1.22,1.11c0.24,0.43,0.37,0.95,0.37,1.57c0,0.87-0.22,1.59-0.65,2.16s-1.01,0.99-1.75,1.26
				C28.07,354.6,27.25,354.74,26.34,354.74z"/>
			<path class="st21" d="M36.03,354.71c-0.99,0-1.72-0.28-2.2-0.83c-0.47-0.55-0.71-1.29-0.71-2.2v-6h2.2v5.46
				c0,0.55,0.13,0.95,0.38,1.2c0.26,0.25,0.64,0.38,1.14,0.38c0.22,0,0.43-0.03,0.64-0.1s0.41-0.14,0.62-0.24l0.63-0.3v-6.4h2.2
				v8.89h-1.68l-0.25-1.45l0.46,0.35l-0.96,0.52c-0.43,0.23-0.85,0.41-1.27,0.53C36.83,354.65,36.42,354.71,36.03,354.71z"/>
			<path class="st21" d="M48.18,354.71c-0.37,0-0.77-0.07-1.18-0.22c-0.41-0.15-0.83-0.36-1.23-0.64l-0.72-0.49l0.44-1.52l0.79,0.47
				c0.23,0.14,0.47,0.24,0.7,0.3s0.46,0.09,0.68,0.09c0.47,0,0.86-0.1,1.19-0.3c0.33-0.2,0.57-0.49,0.74-0.87s0.25-0.86,0.25-1.42
				s-0.09-1.03-0.27-1.42s-0.44-0.67-0.79-0.87c-0.34-0.19-0.76-0.29-1.25-0.29c-0.2,0-0.41,0.02-0.63,0.06
				c-0.22,0.04-0.46,0.11-0.72,0.2l-0.59,0.21v4.56l-0.26,0.37l-0.28,1.63h-1.66v-12.91l2.2-0.56v6l-0.65-0.58l1.17-0.52
				c0.3-0.14,0.64-0.25,1.01-0.33c0.37-0.08,0.71-0.12,1.04-0.12c0.77,0,1.45,0.2,2.04,0.59s1.05,0.93,1.38,1.62s0.5,1.48,0.5,2.38
				c0,0.89-0.17,1.68-0.5,2.37c-0.33,0.69-0.79,1.24-1.38,1.63S48.94,354.71,48.18,354.71z"/>
			<path class="st21" d="M56.66,354.71c-0.45,0-0.92-0.05-1.39-0.14c-0.47-0.09-0.95-0.22-1.42-0.38l-0.58-0.19l0.37-1.57l0.49,0.09
				c0.41,0.07,0.81,0.12,1.21,0.16s0.78,0.05,1.15,0.05c0.48,0,0.84-0.05,1.08-0.17c0.24-0.11,0.36-0.29,0.36-0.53
				c0-0.15-0.03-0.28-0.1-0.38c-0.06-0.1-0.2-0.21-0.42-0.31c-0.22-0.11-0.56-0.22-1.04-0.35c-0.77-0.21-1.37-0.43-1.81-0.67
				s-0.75-0.53-0.93-0.87c-0.18-0.34-0.27-0.76-0.27-1.26c0.01-0.61,0.17-1.1,0.47-1.49c0.3-0.38,0.72-0.67,1.24-0.86
				c0.53-0.19,1.12-0.28,1.78-0.28c0.44,0,0.9,0.04,1.36,0.11c0.47,0.08,0.9,0.18,1.31,0.31l0.35,0.12l-0.3,1.56l-0.3-0.03
				c-0.42-0.06-0.79-0.1-1.11-0.11c-0.32-0.02-0.61-0.03-0.87-0.03c-0.57,0-1.02,0.05-1.34,0.15c-0.32,0.1-0.48,0.25-0.48,0.46
				c0,0.15,0.04,0.27,0.13,0.36c0.09,0.09,0.27,0.18,0.55,0.27c0.28,0.09,0.71,0.22,1.28,0.37c0.72,0.19,1.28,0.4,1.67,0.63
				c0.39,0.23,0.66,0.51,0.81,0.84c0.15,0.33,0.23,0.72,0.23,1.19c0,0.7-0.16,1.27-0.48,1.71c-0.32,0.44-0.75,0.76-1.28,0.96
				C57.87,354.6,57.29,354.71,56.66,354.71z"/>
			<path class="st21" d="M66.06,354.71c-0.86,0-1.66-0.17-2.38-0.52c-0.72-0.35-1.3-0.87-1.74-1.55c-0.44-0.68-0.66-1.51-0.66-2.49
				c0-0.7,0.12-1.33,0.35-1.9c0.23-0.57,0.56-1.05,0.98-1.45s0.9-0.71,1.44-0.93s1.12-0.32,1.74-0.32c0.89,0,1.63,0.19,2.24,0.58
				s1.06,0.92,1.37,1.59c0.31,0.68,0.46,1.45,0.46,2.31v0.7h-6.3c0.08,0.48,0.25,0.87,0.49,1.17c0.24,0.3,0.56,0.53,0.94,0.67
				c0.38,0.15,0.82,0.22,1.29,0.22c0.3,0,0.62-0.03,0.94-0.08c0.33-0.05,0.65-0.13,0.98-0.22l0.79-0.23l0.59,1.45l-0.68,0.33
				c-0.47,0.22-0.94,0.39-1.43,0.5C67,354.65,66.52,354.71,66.06,354.71z M63.64,349.11h4.13c-0.09-0.54-0.3-0.95-0.63-1.25
				c-0.33-0.3-0.78-0.45-1.35-0.45c-0.37,0-0.7,0.07-0.99,0.2c-0.29,0.13-0.53,0.33-0.73,0.59
				C63.88,348.46,63.74,348.76,63.64,349.11z"/>
			<path class="st21" d="M75.82,354.71c-0.86,0-1.64-0.18-2.33-0.53c-0.69-0.36-1.23-0.88-1.63-1.56c-0.4-0.68-0.59-1.51-0.59-2.49
				s0.21-1.81,0.62-2.49c0.41-0.68,0.96-1.2,1.65-1.56c0.69-0.36,1.45-0.53,2.29-0.53c0.41,0,0.8,0.04,1.18,0.11
				c0.38,0.08,0.73,0.18,1.04,0.31l0.49,0.19l-0.4,1.61l-0.59-0.14c-0.26-0.06-0.51-0.1-0.77-0.12c-0.26-0.02-0.5-0.04-0.72-0.04
				c-0.5,0-0.94,0.1-1.33,0.31s-0.68,0.5-0.9,0.89s-0.32,0.88-0.32,1.46c0,0.57,0.11,1.06,0.33,1.45c0.22,0.4,0.53,0.69,0.92,0.89
				s0.84,0.3,1.34,0.3c0.23,0,0.49-0.01,0.76-0.04c0.27-0.03,0.56-0.07,0.85-0.13l0.54-0.12l0.42,1.57l-0.46,0.19
				c-0.4,0.16-0.8,0.28-1.21,0.36C76.58,354.67,76.19,354.71,75.82,354.71z"/>
			<path class="st21" d="M80.28,354.57v-8.89h1.61l0.23,1.08l0.67-0.47c0.34-0.23,0.7-0.42,1.08-0.55c0.38-0.13,0.75-0.2,1.1-0.2
				c0.13,0,0.26,0.02,0.39,0.06c0.13,0.04,0.26,0.11,0.39,0.2v1.75c-0.36,0.01-0.71,0.05-1.04,0.1c-0.33,0.06-0.71,0.17-1.13,0.33
				l-1.1,0.4v6.17H80.28z"/>
			<path class="st21" d="M91.37,354.71c-0.86,0-1.66-0.17-2.38-0.52c-0.72-0.35-1.3-0.87-1.74-1.55c-0.44-0.68-0.66-1.51-0.66-2.49
				c0-0.7,0.12-1.33,0.35-1.9c0.23-0.57,0.56-1.05,0.98-1.45s0.9-0.71,1.44-0.93s1.12-0.32,1.74-0.32c0.89,0,1.63,0.19,2.24,0.58
				s1.06,0.92,1.37,1.59c0.31,0.68,0.46,1.45,0.46,2.31v0.7h-6.3c0.08,0.48,0.25,0.87,0.49,1.17c0.24,0.3,0.56,0.53,0.94,0.67
				c0.38,0.15,0.82,0.22,1.29,0.22c0.3,0,0.62-0.03,0.94-0.08c0.33-0.05,0.65-0.13,0.98-0.22l0.79-0.23l0.59,1.45l-0.68,0.33
				c-0.47,0.22-0.94,0.39-1.43,0.5C92.31,354.65,91.83,354.71,91.37,354.71z M88.95,349.11h4.13c-0.09-0.54-0.3-0.95-0.63-1.25
				c-0.33-0.3-0.78-0.45-1.35-0.45c-0.37,0-0.7,0.07-0.99,0.2c-0.29,0.13-0.53,0.33-0.73,0.59
				C89.19,348.46,89.05,348.76,88.95,349.11z"/>
			<path class="st21" d="M100.55,354.71c-0.88,0-1.54-0.19-1.99-0.58s-0.68-1.01-0.68-1.87v-4.65h-1.91v-1.54l1.91-0.38v-2.06
				l2.2-0.67v2.73h2.76v1.92h-2.76v3.95c0,0.42,0.07,0.74,0.22,0.95c0.15,0.21,0.49,0.31,1.02,0.31c0.15,0,0.31-0.01,0.47-0.02
				s0.34-0.03,0.53-0.05l0.45-0.05l0.25,1.59l-0.4,0.11c-0.33,0.08-0.67,0.15-1.04,0.22C101.2,354.67,100.86,354.71,100.55,354.71z"
				/>
			<path class="st21" d="M106.65,354.71c-0.48,0-0.93-0.09-1.36-0.27c-0.43-0.18-0.78-0.46-1.05-0.83c-0.27-0.37-0.4-0.84-0.4-1.4
				c0-0.75,0.24-1.34,0.72-1.78s1.15-0.74,2.03-0.92l2.68-0.56v-0.04c0-0.51-0.16-0.89-0.47-1.12c-0.32-0.23-0.8-0.35-1.45-0.35
				c-0.37,0-0.75,0.02-1.15,0.07s-0.75,0.11-1.09,0.17l-0.4,0.09l-0.37-1.45l0.44-0.16c0.58-0.21,1.13-0.37,1.64-0.47
				c0.51-0.1,1.01-0.16,1.51-0.16c1.05,0,1.9,0.28,2.55,0.84s0.98,1.41,0.98,2.54v3.25c0,0.36,0.08,0.6,0.25,0.73
				c0.17,0.12,0.52,0.21,1.06,0.25l-0.12,1.45c-0.15,0.04-0.3,0.06-0.44,0.08c-0.14,0.02-0.26,0.03-0.37,0.03
				c-0.61,0-1.09-0.14-1.44-0.41c-0.36-0.27-0.62-0.61-0.8-1l-0.4,0.37c-0.38,0.35-0.8,0.61-1.25,0.79
				C107.49,354.62,107.06,354.71,106.65,354.71z M107.32,352.87c0.23,0,0.48-0.05,0.75-0.14c0.27-0.09,0.54-0.23,0.8-0.42l0.38-0.26
				v-1.8l-2.36,0.67c-0.34,0.09-0.58,0.23-0.72,0.4s-0.21,0.38-0.21,0.61c0,0.3,0.12,0.54,0.35,0.7S106.89,352.87,107.32,352.87z"/>
			<path class="st21" d="M114.16,354.57v-8.89h1.61l0.23,1.08l0.67-0.47c0.34-0.23,0.7-0.42,1.08-0.55c0.38-0.13,0.75-0.2,1.1-0.2
				c0.13,0,0.26,0.02,0.39,0.06c0.13,0.04,0.26,0.11,0.39,0.2v1.75c-0.36,0.01-0.71,0.05-1.04,0.1c-0.33,0.06-0.71,0.17-1.13,0.33
				l-1.1,0.4v6.17H114.16z"/>
			<path class="st21" d="M120.79,344.68l1.84-3.11h2.45l-2.57,3.11H120.79z M121.17,354.57v-8.89h2.2v8.89H121.17z"/>
			<path class="st21" d="M128.03,354.71c-0.48,0-0.93-0.09-1.36-0.27c-0.43-0.18-0.78-0.46-1.05-0.83c-0.27-0.37-0.4-0.84-0.4-1.4
				c0-0.75,0.24-1.34,0.72-1.78s1.15-0.74,2.03-0.92l2.68-0.56v-0.04c0-0.51-0.16-0.89-0.47-1.12c-0.32-0.23-0.8-0.35-1.45-0.35
				c-0.37,0-0.75,0.02-1.15,0.07s-0.75,0.11-1.09,0.17l-0.4,0.09l-0.37-1.45l0.44-0.16c0.58-0.21,1.13-0.37,1.64-0.47
				c0.51-0.1,1.01-0.16,1.51-0.16c1.05,0,1.9,0.28,2.55,0.84s0.98,1.41,0.98,2.54v3.25c0,0.36,0.08,0.6,0.25,0.73
				c0.17,0.12,0.52,0.21,1.06,0.25l-0.12,1.45c-0.15,0.04-0.3,0.06-0.44,0.08c-0.14,0.02-0.26,0.03-0.37,0.03
				c-0.61,0-1.09-0.14-1.44-0.41c-0.36-0.27-0.62-0.61-0.8-1l-0.4,0.37c-0.38,0.35-0.8,0.61-1.25,0.79
				C128.86,354.62,128.43,354.71,128.03,354.71z M128.69,352.87c0.23,0,0.48-0.05,0.75-0.14c0.27-0.09,0.54-0.23,0.8-0.42l0.38-0.26
				v-1.8l-2.36,0.67c-0.34,0.09-0.58,0.23-0.72,0.4s-0.21,0.38-0.21,0.61c0,0.3,0.12,0.54,0.35,0.7S128.26,352.87,128.69,352.87z"/>
			<path class="st21" d="M143.89,354.71c-0.64,0-1.2-0.12-1.69-0.38c-0.48-0.25-0.89-0.59-1.22-1.02c-0.33-0.43-0.57-0.92-0.74-1.47
				c-0.17-0.55-0.25-1.12-0.25-1.71c0-0.62,0.08-1.2,0.25-1.75c0.17-0.55,0.42-1.04,0.76-1.46c0.34-0.43,0.75-0.76,1.23-1.01
				c0.48-0.24,1.04-0.37,1.67-0.37c0.31,0,0.65,0.04,1.01,0.11c0.36,0.08,0.71,0.19,1.03,0.34l0.53,0.23v-4.57l2.2-0.56v13.47h-1.66
				l-0.17-1.08l-0.54,0.37c-0.38,0.26-0.78,0.46-1.19,0.62C144.71,354.63,144.3,354.71,143.89,354.71z M142.23,350.11
				c0,0.56,0.08,1.04,0.25,1.44s0.42,0.71,0.76,0.92c0.34,0.21,0.76,0.31,1.28,0.31c0.2,0,0.41-0.03,0.65-0.1
				c0.23-0.06,0.47-0.17,0.72-0.32l0.59-0.37v-3.99l-0.59-0.26c-0.22-0.09-0.45-0.17-0.67-0.22s-0.45-0.08-0.67-0.08
				c-0.46,0-0.86,0.1-1.21,0.29s-0.62,0.48-0.81,0.87C142.32,349,142.23,349.5,142.23,350.11z"/>
			<path class="st21" d="M155.47,354.71c-0.86,0-1.66-0.17-2.38-0.52c-0.72-0.35-1.3-0.87-1.74-1.55c-0.44-0.68-0.66-1.51-0.66-2.49
				c0-0.7,0.12-1.33,0.35-1.9c0.23-0.57,0.56-1.05,0.98-1.45s0.9-0.71,1.44-0.93s1.12-0.32,1.74-0.32c0.89,0,1.63,0.19,2.24,0.58
				s1.06,0.92,1.37,1.59c0.31,0.68,0.46,1.45,0.46,2.31v0.7h-6.3c0.08,0.48,0.25,0.87,0.49,1.17c0.24,0.3,0.56,0.53,0.94,0.67
				c0.38,0.15,0.82,0.22,1.29,0.22c0.3,0,0.62-0.03,0.94-0.08c0.33-0.05,0.65-0.13,0.98-0.22l0.79-0.23l0.59,1.45l-0.68,0.33
				c-0.47,0.22-0.94,0.39-1.43,0.5C156.41,354.65,155.94,354.71,155.47,354.71z M153.06,349.11h4.13c-0.09-0.54-0.3-0.95-0.63-1.25
				c-0.33-0.3-0.78-0.45-1.35-0.45c-0.37,0-0.7,0.07-0.99,0.2c-0.29,0.13-0.53,0.33-0.73,0.59
				C153.29,348.46,153.15,348.76,153.06,349.11z"/>
			<path class="st21" d="M53.26,375.56v-12.24h4.56c1.29,0,2.43,0.24,3.39,0.71s1.72,1.16,2.26,2.07c0.54,0.91,0.8,2.03,0.8,3.36
				c0,1.27-0.27,2.36-0.8,3.28c-0.54,0.92-1.3,1.62-2.29,2.1c-0.99,0.48-2.16,0.73-3.52,0.73H53.26z M55.55,373.54h2.2
				c0.91,0,1.67-0.16,2.29-0.48c0.62-0.32,1.09-0.78,1.41-1.39c0.32-0.61,0.48-1.35,0.48-2.22c0-0.93-0.15-1.71-0.46-2.32
				c-0.31-0.61-0.77-1.07-1.39-1.36c-0.62-0.3-1.39-0.45-2.33-0.45h-2.2V373.54z"/>
			<path class="st21" d="M70.72,375.7c-0.86,0-1.66-0.17-2.38-0.52c-0.72-0.35-1.3-0.87-1.74-1.55c-0.44-0.68-0.66-1.51-0.66-2.49
				c0-0.7,0.12-1.33,0.35-1.9c0.23-0.57,0.56-1.05,0.98-1.45s0.9-0.71,1.44-0.93s1.12-0.32,1.74-0.32c0.89,0,1.63,0.19,2.24,0.58
				s1.06,0.92,1.37,1.59c0.31,0.68,0.46,1.45,0.46,2.31v0.7h-6.3c0.08,0.48,0.25,0.87,0.49,1.17c0.24,0.3,0.56,0.53,0.94,0.67
				c0.38,0.15,0.82,0.22,1.29,0.22c0.3,0,0.62-0.03,0.94-0.08c0.33-0.05,0.65-0.13,0.98-0.22l0.79-0.23l0.59,1.45l-0.68,0.33
				c-0.47,0.22-0.94,0.39-1.43,0.5C71.66,375.64,71.18,375.7,70.72,375.7z M68.3,370.1h4.13c-0.09-0.54-0.3-0.95-0.63-1.25
				c-0.33-0.3-0.78-0.45-1.35-0.45c-0.37,0-0.7,0.07-0.99,0.2c-0.29,0.13-0.53,0.33-0.73,0.59C68.54,369.45,68.4,369.75,68.3,370.1z
				"/>
			<path class="st21" d="M76.37,379.35v-12.68h1.66l0.19,1.08l0.53-0.37c0.41-0.28,0.82-0.49,1.23-0.64s0.81-0.22,1.18-0.22
				c0.76,0,1.43,0.2,2.02,0.59s1.05,0.93,1.38,1.62s0.5,1.48,0.5,2.38c0,0.68-0.1,1.29-0.29,1.85s-0.46,1.04-0.8,1.45
				s-0.75,0.72-1.23,0.94s-1.01,0.33-1.59,0.33c-0.33,0-0.67-0.04-1.04-0.12s-0.7-0.19-1.01-0.33L78.57,375v3.97L76.37,379.35z
				 M80.51,373.7c0.49,0,0.91-0.1,1.25-0.31s0.61-0.5,0.79-0.88s0.27-0.85,0.27-1.38c0-0.57-0.09-1.05-0.26-1.43
				s-0.43-0.67-0.78-0.87s-0.76-0.29-1.25-0.29c-0.21,0-0.43,0.04-0.67,0.12c-0.24,0.08-0.5,0.2-0.78,0.37l-0.51,0.3v3.9l0.59,0.21
				c0.26,0.08,0.5,0.15,0.72,0.19C80.1,373.68,80.31,373.7,80.51,373.7z"/>
			<path class="st21" d="M91.11,375.7c-0.91,0-1.7-0.2-2.37-0.59s-1.19-0.93-1.56-1.62c-0.37-0.69-0.55-1.48-0.55-2.38
				c0-0.91,0.19-1.71,0.57-2.4c0.38-0.69,0.91-1.22,1.58-1.61c0.68-0.38,1.46-0.58,2.36-0.58c0.91,0,1.7,0.2,2.36,0.59
				c0.66,0.39,1.18,0.93,1.54,1.62s0.54,1.48,0.54,2.38c0,0.9-0.19,1.69-0.56,2.39c-0.37,0.69-0.89,1.23-1.57,1.62
				S92.01,375.7,91.11,375.7z M91.13,373.79c0.46,0,0.85-0.1,1.17-0.31s0.58-0.52,0.76-0.92s0.27-0.88,0.27-1.44
				c0-0.57-0.09-1.06-0.26-1.45s-0.43-0.7-0.76-0.91s-0.73-0.32-1.18-0.32s-0.85,0.11-1.19,0.32s-0.6,0.51-0.79,0.91
				s-0.28,0.88-0.28,1.45c0,0.56,0.09,1.04,0.28,1.44s0.45,0.71,0.79,0.92S90.68,373.79,91.13,373.79z"/>
			<path class="st21" d="M97.6,375.56v-8.89h1.61l0.23,1.08l0.67-0.47c0.34-0.23,0.7-0.42,1.08-0.55c0.38-0.13,0.75-0.2,1.1-0.2
				c0.13,0,0.26,0.02,0.39,0.06c0.13,0.04,0.26,0.11,0.39,0.2v1.75c-0.36,0.01-0.71,0.05-1.04,0.1c-0.33,0.06-0.71,0.17-1.13,0.33
				l-1.1,0.4v6.17H97.6z"/>
			<path class="st21" d="M108.24,375.7c-0.88,0-1.54-0.19-1.99-0.58s-0.68-1.01-0.68-1.87v-4.65h-1.91v-1.54l1.91-0.38v-2.06
				l2.2-0.67v2.73h2.76v1.92h-2.76v3.95c0,0.42,0.07,0.74,0.22,0.95c0.15,0.21,0.49,0.31,1.02,0.31c0.15,0,0.31-0.01,0.47-0.02
				s0.34-0.03,0.53-0.05l0.45-0.05l0.25,1.59l-0.4,0.11c-0.33,0.08-0.67,0.15-1.04,0.22C108.89,375.66,108.55,375.7,108.24,375.7z"
				/>
			<path class="st21" d="M116.39,375.7c-0.86,0-1.66-0.17-2.38-0.52c-0.72-0.35-1.3-0.87-1.74-1.55c-0.44-0.68-0.66-1.51-0.66-2.49
				c0-0.7,0.12-1.33,0.35-1.9c0.23-0.57,0.56-1.05,0.98-1.45s0.9-0.71,1.44-0.93s1.12-0.32,1.74-0.32c0.89,0,1.63,0.19,2.24,0.58
				s1.06,0.92,1.37,1.59c0.31,0.68,0.46,1.45,0.46,2.31v0.7h-6.3c0.08,0.48,0.25,0.87,0.49,1.17c0.24,0.3,0.56,0.53,0.94,0.67
				c0.38,0.15,0.82,0.22,1.29,0.22c0.3,0,0.62-0.03,0.94-0.08c0.33-0.05,0.65-0.13,0.98-0.22l0.79-0.23l0.59,1.45l-0.68,0.33
				c-0.47,0.22-0.94,0.39-1.43,0.5C117.33,375.64,116.85,375.7,116.39,375.7z M113.97,370.1h4.13c-0.09-0.54-0.3-0.95-0.63-1.25
				c-0.33-0.3-0.78-0.45-1.35-0.45c-0.37,0-0.7,0.07-0.99,0.2c-0.29,0.13-0.53,0.33-0.73,0.59
				C114.21,369.45,114.07,369.75,113.97,370.1z"/>
			<path class="st21" d="M124.87,375.7c-0.45,0-0.92-0.05-1.39-0.14c-0.47-0.09-0.95-0.22-1.42-0.38l-0.58-0.19l0.37-1.57l0.49,0.09
				c0.41,0.07,0.81,0.12,1.21,0.16s0.78,0.05,1.15,0.05c0.48,0,0.84-0.05,1.08-0.17c0.24-0.11,0.36-0.29,0.36-0.53
				c0-0.15-0.03-0.28-0.1-0.38c-0.06-0.1-0.2-0.21-0.42-0.31c-0.22-0.11-0.56-0.22-1.04-0.35c-0.77-0.21-1.37-0.43-1.81-0.67
				s-0.75-0.53-0.93-0.87c-0.18-0.34-0.27-0.76-0.27-1.26c0.01-0.61,0.17-1.1,0.47-1.49c0.3-0.38,0.72-0.67,1.24-0.86
				c0.53-0.19,1.12-0.28,1.78-0.28c0.44,0,0.9,0.04,1.36,0.11c0.47,0.08,0.9,0.18,1.31,0.31l0.35,0.12l-0.3,1.56l-0.3-0.03
				c-0.42-0.06-0.79-0.1-1.11-0.11c-0.32-0.02-0.61-0.03-0.87-0.03c-0.57,0-1.02,0.05-1.34,0.15c-0.32,0.1-0.48,0.25-0.48,0.46
				c0,0.15,0.04,0.27,0.13,0.36c0.09,0.09,0.27,0.18,0.55,0.27c0.28,0.09,0.71,0.22,1.28,0.37c0.72,0.19,1.28,0.4,1.67,0.63
				c0.39,0.23,0.66,0.51,0.81,0.84c0.15,0.33,0.23,0.72,0.23,1.19c0,0.7-0.16,1.27-0.48,1.71c-0.32,0.44-0.75,0.76-1.28,0.96
				C126.08,375.59,125.5,375.7,124.87,375.7z"/>
		</g>
	</g>
	
		<rect y="312.9" transform="matrix(-1 -1.224647e-16 1.224647e-16 -1 180.8572 626.7713)" class="st24" width="180.86" height="0.97"/>
</g>
</svg>
