<?xml version="1.0" encoding="utf-8"?>
<!-- Generator: Adobe Illustrator 25.4.1, SVG Export Plug-In . SVG Version: 6.00 Build 0)  -->
<svg version="1.1" id="Capa_1" xmlns="http://www.w3.org/2000/svg" xmlns:xlink="http://www.w3.org/1999/xlink" x="0px" y="0px"
	 viewBox="0 0 275.56 384.08" style="enable-background:new 0 0 275.56 384.08;" xml:space="preserve">
<style type="text/css">
	.st0{fill:#312783;}
	.st1{fill:url(#SVGID_1_);}
	.st2{fill:#E30613;}
	.st3{opacity:0.35;}
	.st4{fill:url(#SVGID_00000106860444936627973630000000361901590197614525_);}
	.st5{fill:url(#SVGID_00000084514305788406953850000012468669312358105232_);}
	.st6{fill:url(#SVGID_00000080909424946141029420000003828258258506030503_);}
	.st7{fill:url(#SVGID_00000071550920367818045420000012974961169677564591_);}
	.st8{fill:none;}
	.st9{fill:#009FE3;}
	.st10{fill:url(#SVGID_00000037688518053882947960000007905505995466367678_);}
	.st11{fill:#FBB936;}
	.st12{fill:url(#SVGID_00000084525916733109132060000014348543431297796736_);}
	.st13{fill:url(#SVGID_00000085942654694470374930000016099767802165746872_);}
	.st14{fill:url(#SVGID_00000129928491880562669340000001148547952855108271_);}
	.st15{fill:url(#SVGID_00000121997181659339843150000013729122880807509686_);}
	.st16{fill:url(#SVGID_00000019671887789793834580000013456994010826304915_);}
	.st17{fill:url(#SVGID_00000176028735558453426080000016452766342978498998_);}
	.st18{fill:url(#SVGID_00000091722787789641503040000018277006117154974363_);}
	.st19{fill:url(#SVGID_00000054980038818045656390000012412534125106011294_);}
	.st20{fill:#FFFFFF;}
	.st21{fill:#3CB4E5;}
	.st22{fill:#C8A977;}
	.st23{fill:none;stroke:#A19821;stroke-width:1.835;stroke-miterlimit:10;}
	.st24{fill:#000F9F;}
</style>
<g>
	<linearGradient id="SVGID_1_" gradientUnits="userSpaceOnUse" x1="184.9025" y1="69.3642" x2="270.7053" y2="135.4911">
		<stop  offset="0" style="stop-color:#29235C"/>
		<stop  offset="0.011" style="stop-color:#27265F"/>
		<stop  offset="0.0881" style="stop-color:#0E3D74"/>
		<stop  offset="0.1707" style="stop-color:#00548C"/>
		<stop  offset="0.2567" style="stop-color:#0069A2"/>
		<stop  offset="0.347" style="stop-color:#007AB6"/>
		<stop  offset="0.443" style="stop-color:#0088C6"/>
		<stop  offset="0.5464" style="stop-color:#0092D3"/>
		<stop  offset="0.661" style="stop-color:#0099DC"/>
		<stop  offset="0.7958" style="stop-color:#009DE2"/>
		<stop  offset="1" style="stop-color:#009FE3"/>
	</linearGradient>
	<path class="st1" d="M275.56,91.99c0,20.19-5.99,38.96-16.2,54.74c-8.67,13.4-20.43,24.59-34.28,32.61
		c-2.68,1.55-5.44,2.98-8.27,4.28c-4,1.83-8.72,1.02-11.83-2.09l-32.68-32.68c-6.74-6.74-6.74-17.78,0-24.52l1.18-1.18
		c0,0,25.54-24.99,31.14-31.14c5.61-6.16,40.15-43.62,11.39-91.99c3.11,1.39,6.14,2.94,9.07,4.64c13.85,8.02,25.6,19.2,34.28,32.61
		l-0.25,0.25c0.13-0.13,0.35-0.11,0.45,0.05C269.65,53.27,275.56,71.92,275.56,91.99z"/>
	<circle class="st2" cx="204.76" cy="354.16" r="29.92"/>
	<path class="st3" d="M225.78,332.96c-3.34-3.99-11.61-8.33-17.36-8.46c0,0,16.14,24.57,7.67,57.39c0.01,0,0.01,0,0.02-0.01
		C228.28,362.38,230.09,347.79,225.78,332.96z"/>
	<path class="st2" d="M275.56,289.92c0-20.19-5.99-38.96-16.2-54.74c-8.67-13.4-20.43-24.59-34.28-32.61
		c-2.68-1.55-5.44-2.98-8.27-4.28c-4-1.83-8.72-1.02-11.83,2.09l-32.68,32.68c-6.74,6.74-6.74,17.78,0,24.52l1.18,1.18
		c0,0,25.54,24.99,31.14,31.14c5.61,6.16,40.15,43.62,11.39,91.99c3.11-1.39,6.14-2.94,9.07-4.64c13.85-8.02,25.6-19.2,34.28-32.61
		l-0.25-0.25c0.13,0.13,0.35,0.11,0.45-0.05C269.65,328.64,275.56,309.99,275.56,289.92z"/>
	<path class="st3" d="M225.78,332.96c-3.34-3.99-11.61-8.33-17.36-8.46c0,0,16.14,24.57,7.67,57.39c0.01,0,0.01,0,0.02-0.01
		C228.28,362.38,230.09,347.79,225.78,332.96z"/>
	
		<linearGradient id="SVGID_00000107579079226323596430000005500813175448017321_" gradientUnits="userSpaceOnUse" x1="167.2341" y1="289.6171" x2="275.5619" y2="289.6171">
		<stop  offset="0" style="stop-color:#29235C"/>
		<stop  offset="0.8212" style="stop-color:#1D71B8"/>
	</linearGradient>
	<path style="fill:url(#SVGID_00000107579079226323596430000005500813175448017321_);" d="M275.56,289.92
		c0-20.19-5.99-38.96-16.2-54.74c-8.67-13.4-20.43-24.59-34.28-32.61c-2.68-1.55-5.44-2.98-8.27-4.28c-4-1.83-8.72-1.02-11.83,2.09
		l-32.68,32.68c-6.74,6.74-6.74,17.78,0,24.52l1.18,1.18c0,0,25.54,24.99,31.14,31.14c5.61,6.16,40.15,43.62,11.39,91.99
		c3.11-1.39,6.14-2.94,9.07-4.64c13.85-8.02,25.6-19.2,34.28-32.61l-0.25-0.25c0.13,0.13,0.35,0.11,0.45-0.05
		C269.65,328.64,275.56,309.99,275.56,289.92z"/>
	
		<linearGradient id="SVGID_00000174571258372626710260000001741152536458555037_" gradientUnits="userSpaceOnUse" x1="2.738080e-04" y1="236.7374" x2="59.8429" y2="236.7374">
		<stop  offset="0" style="stop-color:#29235C"/>
		<stop  offset="0.8212" style="stop-color:#1D71B8"/>
	</linearGradient>
	<circle style="fill:url(#SVGID_00000174571258372626710260000001741152536458555037_);" cx="29.92" cy="236.74" r="29.92"/>
	<path class="st3" d="M50.73,258.15c4.05-3.26,8.55-11.45,8.78-17.2c0,0-24.86,15.68-57.53,6.61c0,0.01,0,0.01,0.01,0.02
		C21.27,260.1,35.82,262.18,50.73,258.15z"/>
	
		<linearGradient id="SVGID_00000139251464731029519520000014985321849419479948_" gradientUnits="userSpaceOnUse" x1="0" y1="145.4378" x2="59.8432" y2="145.4378">
		<stop  offset="0" style="stop-color:#29235C"/>
		<stop  offset="0.8212" style="stop-color:#1D71B8"/>
	</linearGradient>
	<circle style="fill:url(#SVGID_00000139251464731029519520000014985321849419479948_);" cx="29.92" cy="145.44" r="29.92"/>
	<path class="st3" d="M50.48,123.78c4.09,3.21,8.68,11.35,8.98,17.1c0,0-25.05-15.39-57.6-5.93c0-0.01,0-0.01,0-0.02
		C21,122.17,35.52,119.93,50.48,123.78z"/>
	
		<linearGradient id="SVGID_00000178194233080503491820000013218647051188537217_" gradientUnits="userSpaceOnUse" x1="2.0038" y1="249.1405" x2="186.3616" y2="249.1405">
		<stop  offset="0" style="stop-color:#29235C"/>
		<stop  offset="0.8212" style="stop-color:#E30613"/>
	</linearGradient>
	<path style="fill:url(#SVGID_00000178194233080503491820000013218647051188537217_);" d="M95.95,304
		c20.18-0.68,38.74-7.3,54.16-18.04c13.1-9.12,23.88-21.25,31.43-35.36c1.46-2.73,2.79-5.54,4-8.41c1.7-4.06,0.72-8.75-2.49-11.76
		l-33.77-31.56c-6.97-6.51-18-6.14-24.51,0.83l-1.14,1.22c0,0-24.11,26.37-30.07,32.18S51.32,274.7,2,247.59
		c1.5,3.06,3.15,6.04,4.94,8.91c8.49,13.57,20.06,24.94,33.75,33.16l0.25-0.26c-0.13,0.13-0.09,0.35,0.06,0.45
		C57.05,299.4,75.9,304.68,95.95,304z"/>
	<path class="st8" d="M83.8,239.86c1.76-1.57,3.31-3.02,4.42-4.15l1.3-1.4c-1.14,1.18-3.02,3.03-5.5,5.21L84,239.55
		C83.93,239.65,83.89,239.74,83.8,239.86z"/>
	<path class="st9" d="M84.03,239.52c-0.01,0.01-0.02,0.02-0.03,0.03c0,0,0,0,0,0.01L84.03,239.52z"/>
	<path class="st9" d="M79.43,243.67c-0.03,0.03-0.06,0.05-0.09,0.08c0.02-0.01,0.03-0.03,0.05-0.04
		C79.41,243.7,79.42,243.69,79.43,243.67z"/>
	<path class="st9" d="M71.07,249.88c2.98-1.7,5.84-3.99,8.27-6.13C76.5,246.04,73.76,248.05,71.07,249.88z"/>
	<path class="st9" d="M82.25,241.25c0.58-0.49,1.03-0.92,1.55-1.39c0.08-0.12,0.13-0.21,0.19-0.31L82.25,241.25z"/>
	
		<linearGradient id="SVGID_00000116921651649677780380000004220960295556216725_" gradientUnits="userSpaceOnUse" x1="2.0038" y1="132.7663" x2="186.3616" y2="132.7663">
		<stop  offset="0" style="stop-color:#29235C"/>
		<stop  offset="0.011" style="stop-color:#27265F"/>
		<stop  offset="0.0881" style="stop-color:#0E3D74"/>
		<stop  offset="0.1707" style="stop-color:#00548C"/>
		<stop  offset="0.2567" style="stop-color:#0069A2"/>
		<stop  offset="0.347" style="stop-color:#007AB6"/>
		<stop  offset="0.443" style="stop-color:#0088C6"/>
		<stop  offset="0.5464" style="stop-color:#0092D3"/>
		<stop  offset="0.661" style="stop-color:#0099DC"/>
		<stop  offset="0.7958" style="stop-color:#009DE2"/>
		<stop  offset="1" style="stop-color:#009FE3"/>
	</linearGradient>
	<path style="fill:url(#SVGID_00000116921651649677780380000004220960295556216725_);" d="M95.95,77.9
		c20.18,0.68,38.74,7.3,54.16,18.04c13.1,9.12,23.88,21.25,31.43,35.36c1.46,2.73,2.79,5.54,4,8.41c1.7,4.06,0.72,8.75-2.49,11.76
		l-33.77,31.56c-6.97,6.51-18,6.14-24.51-0.83l-1.14-1.22c0,0-24.11-26.37-30.07-32.18S51.32,107.2,2,134.32
		c1.5-3.06,3.15-6.04,4.94-8.91c8.49-13.57,20.06-24.94,33.75-33.16l0.25,0.26c-0.13-0.13-0.09-0.35,0.06-0.45
		C57.05,82.51,75.9,77.23,95.95,77.9z"/>
	<path class="st3" d="M189.29,70.69c-4.33,4.27-14.45,8.38-21.16,7.87c0,0,21.56-26.76,15.44-65.91c0.01,0,0.01,0.01,0.02,0.01
		C195.54,36.74,195.98,53.92,189.29,70.69z"/>
	<circle class="st11" cx="167.23" cy="43.64" r="34.98"/>
	
		<linearGradient id="SVGID_00000078032031367486346980000010620481793749157294_" gradientUnits="userSpaceOnUse" x1="132.2512" y1="43.6361" x2="202.217" y2="43.6361">
		<stop  offset="0" style="stop-color:#29235C"/>
		<stop  offset="0.0162" style="stop-color:#2F265C"/>
		<stop  offset="0.1323" style="stop-color:#573B5F"/>
		<stop  offset="0.2516" style="stop-color:#7F5660"/>
		<stop  offset="0.3717" style="stop-color:#A3715D"/>
		<stop  offset="0.4926" style="stop-color:#C18956"/>
		<stop  offset="0.6146" style="stop-color:#DA9D4C"/>
		<stop  offset="0.7382" style="stop-color:#ECAC41"/>
		<stop  offset="0.8644" style="stop-color:#F7B639"/>
		<stop  offset="0.9972" style="stop-color:#FBB936"/>
	</linearGradient>
	<circle style="fill:url(#SVGID_00000078032031367486346980000010620481793749157294_);" cx="167.23" cy="43.64" r="34.98"/>
</g>
</svg>
