<?xml version="1.0" encoding="utf-8"?>
<!-- Generator: Adobe Illustrator 25.4.1, SVG Export Plug-In . SVG Version: 6.00 Build 0)  -->
<svg version="1.1" id="Capa_1" xmlns="http://www.w3.org/2000/svg" xmlns:xlink="http://www.w3.org/1999/xlink" x="0px" y="0px"
	 viewBox="0 0 277.61 401.54" style="enable-background:new 0 0 277.61 401.54;" xml:space="preserve">
<style type="text/css">
	.st0{fill:#312783;}
	.st1{fill:url(#SVGID_1_);}
	.st2{fill:#E30613;}
	.st3{opacity:0.35;}
	.st4{fill:url(#SVGID_00000090293663459340156910000013291663242706904194_);}
	.st5{fill:url(#SVGID_00000057142024907789068520000012332963292321930920_);}
	.st6{fill:url(#SVGID_00000104702998712463576170000005611365429814833565_);}
	.st7{fill:url(#SVGID_00000069397980027085165550000002706397603509038725_);}
	.st8{fill:none;}
	.st9{fill:#009FE3;}
	.st10{fill:url(#SVGID_00000021091159982727748570000012259569382892022939_);}
	.st11{fill:#FBB936;}
	.st12{fill:url(#SVGID_00000013903783922259757720000010725171460610389665_);}
	.st13{fill:url(#SVGID_00000132079251918947596000000005587835737559542684_);}
	.st14{fill:url(#SVGID_00000133521789760671889680000000352250790630481034_);}
	.st15{fill:url(#SVGID_00000039854687435178658580000003850903057965923000_);}
	.st16{fill:url(#SVGID_00000074433190218104061940000000302438905468041638_);}
	.st17{fill:url(#SVGID_00000096049942017707086360000004367858812512706979_);}
	.st18{fill:url(#SVGID_00000129908706807649601970000006036024462992266130_);}
	.st19{fill:url(#SVGID_00000044897262003113589340000015187621916979541650_);}
	.st20{fill:#FFFFFF;}
	.st21{fill:#3CB4E5;}
	.st22{fill:#C8A977;}
	.st23{fill:none;stroke:#A19821;stroke-width:1.835;stroke-miterlimit:10;}
	.st24{fill:#000F9F;}
</style>
<g>
	<g>
		<g>
			<g>
				<path class="st0" d="M63.52,266.84c0.47-1.43,0.95-2.8,1.43-4.13c0.47-1.33,0.92-2.67,1.33-4.03c1.9-5.71,3.09-11.49,3.57-17.34
					c0.13-2.38,0.05-4.71-0.26-6.98c-0.3-2.28-0.93-4.54-1.88-6.78c-1.16-2.58-2.69-4.47-4.59-5.66c-1.9-1.19-4.25-1.85-7.03-1.99
					c-2.11-0.06-4.18,0.08-6.22,0.46s-4.04,0.87-6.02,1.48c-4.42,1.43-8.56,3.26-12.44,5.51c-3.87,2.24-7.44,5-10.7,8.26
					c-1.23,1.29-2.36,2.62-3.42,3.97c-1.05,1.36-1.99,2.82-2.8,4.38c-0.34,0.75-0.65,1.46-0.92,2.14c-0.27,0.68-0.38,1.46-0.31,2.34
					c0.13,1.02-0.34,1.36-1.43,1.02c-2.04-0.75-3.43-2.24-4.18-4.49c-0.34-0.95-0.42-1.83-0.25-2.64c0.17-0.82,0.42-1.67,0.76-2.55
					c0.61-1.56,1.38-3.02,2.3-4.38s1.92-2.69,3.01-3.98c2.65-3.06,5.59-5.69,8.82-7.91c3.23-2.21,6.68-4.09,10.35-5.66
					c2.58-1.16,5.25-2.12,8.01-2.91c2.75-0.78,5.56-1.28,8.41-1.48c3.06-0.2,5.98,0.05,8.77,0.77c2.79,0.71,5.4,2.06,7.85,4.03
					c3.46,2.79,6.19,5.97,8.16,9.54c1.97,3.57,3.33,7.49,4.08,11.77c0.54,3.33,0.68,6.61,0.4,9.84c-0.27,3.23-0.78,6.48-1.53,9.74
					c-1.16,5.03-2.71,9.86-4.64,14.48c-1.94,4.62-4.23,9.14-6.88,13.56c-2.65,4.49-5.51,8.76-8.56,12.8
					c-3.06,4.04-6.46,7.9-10.2,11.58c-6.93,6.93-15.06,12.03-24.37,15.29c-2.18,0.75-4.37,1.16-6.58,1.22
					c-2.21,0.07-4.4-0.34-6.58-1.22c-1.43-0.61-2.75-1.34-3.98-2.19c-1.22-0.85-2.31-1.95-3.26-3.32c-1.77-2.45-2.18-5.23-1.23-8.36
					c0.48-1.36,1.07-2.6,1.78-3.72c0.71-1.12,1.52-2.26,2.4-3.41c2.99-3.67,6.12-7.19,9.38-10.55c3.26-3.36,6.63-6.68,10.09-9.95
					c2.86-2.65,5.76-5.18,8.72-7.6s6.07-4.67,9.33-6.78c1.5-0.95,3.01-1.83,4.54-2.65c1.53-0.82,3.11-1.5,4.74-2.04
					c1.97-0.75,3.94-1.14,5.92-1.17C59.37,265.13,61.41,265.69,63.52,266.84z M61.79,270.52c-0.68,0.13-1.27,0.27-1.78,0.4
					c-0.51,0.14-1,0.31-1.48,0.51c-1.97,0.68-3.84,1.51-5.61,2.5c-1.77,0.99-3.5,2.06-5.2,3.21c-6.39,4.49-12.37,9.38-17.95,14.69
					c-5.57,5.3-10.81,11.01-15.7,17.13c-0.82,1.02-1.6,2.09-2.35,3.21c-0.75,1.12-1.36,2.33-1.83,3.62
					c-0.34,0.95-0.53,1.9-0.56,2.86c-0.03,0.95,0.25,1.9,0.87,2.86c0.47-0.14,0.95-0.24,1.43-0.31c0.47-0.06,0.95-0.17,1.43-0.3
					c3.94-1.29,7.67-2.96,11.17-5c3.5-2.04,6.78-4.46,9.84-7.24c5.78-5.16,10.9-10.79,15.35-16.87c4.45-6.09,8.35-12.63,11.68-19.63
					L61.79,270.52z"/>
				<path class="st0" d="M82.6,297.13c0.2-0.2,0.42-0.41,0.66-0.61c0.23-0.2,0.46-0.44,0.66-0.71c0.95-1.16,1.89-2.31,2.81-3.47
					c0.92-1.15,1.78-2.34,2.6-3.57c2.45-3.74,4.9-7.48,7.34-11.22c2.44-3.74,4.86-7.51,7.24-11.32c0.47-0.74,0.83-1.58,1.07-2.5
					c0.23-0.92,0.52-1.85,0.87-2.8c0.34-0.82,0.63-1.64,0.86-2.45c0.24-0.82,0.49-1.64,0.77-2.45c0.47-1.5,1.5-2.24,3.06-2.24
					c1.29,0,2.72,0.34,4.28,1.02c1.43,0.68,1.97,1.87,1.63,3.57c-0.27,1.36-0.54,2.69-0.82,3.98c-0.27,1.29-0.58,2.62-0.92,3.98
					c-0.95,3.4-1.93,6.73-2.96,10c-1.02,3.26-2,6.6-2.96,9.99c-0.41,1.43-0.8,2.88-1.17,4.34c-0.38,1.46-0.73,2.91-1.07,4.33
					c0,0.14,0.01,0.24,0.05,0.31c0.03,0.06,0.05,0.2,0.05,0.4l1.64-2.14c2.1-2.86,4.08-5.75,5.91-8.67c1.83-2.92,3.7-5.88,5.61-8.87
					c0.47-0.75,0.9-1.46,1.28-2.14c0.37-0.68,0.8-1.36,1.28-2.04c0.34-0.54,0.81-0.92,1.43-1.12c0.61-0.2,1.22-0.2,1.83,0
					c0.95,0.34,1.23,0.95,0.82,1.83l-2.04,3.46c-1.84,3.06-3.67,6.1-5.51,9.13c-1.83,3.03-3.74,6.04-5.71,9.02
					c-0.95,1.43-1.93,2.81-2.96,4.13c-1.02,1.33-2.04,2.67-3.06,4.03c-0.96,1.29-2.01,2.05-3.17,2.29s-2.48,0.08-3.97-0.46
					c-1.43-0.41-2.24-1.36-2.45-2.86c-0.34-1.36-0.49-2.72-0.46-4.08c0.03-1.36,0.15-2.72,0.35-4.08l2.35-12.03
					c-0.34,0.34-0.58,0.65-0.72,0.92c-0.13,0.27-0.27,0.51-0.4,0.71c-1.36,2.18-2.7,4.32-4.03,6.43c-1.33,2.11-2.67,4.22-4.03,6.32
					c-0.61,0.89-1.26,1.73-1.94,2.55c-0.68,0.81-1.4,1.6-2.14,2.34c-2.24,2.31-4.83,2.99-7.75,2.04c-0.95-0.27-1.75-0.68-2.4-1.22
					s-1.11-1.29-1.38-2.24c-0.2-0.82-0.37-1.63-0.51-2.45c-0.13-0.82-0.23-1.63-0.3-2.45c-0.06-2.86,0.15-5.64,0.66-8.36
					c0.51-2.72,1.11-5.44,1.78-8.16c0.88-3.46,1.83-6.88,2.86-10.25c1.02-3.36,2-6.78,2.96-10.25l0.61-1.73
					c0.47-1.43,1.53-2.14,3.16-2.14c2.11,0,3.87,0.58,5.3,1.73c0.61,0.47,1,0.95,1.17,1.43c0.17,0.48,0.08,1.09-0.25,1.83
					c-1.7,4.76-3.18,9.59-4.44,14.48c-1.26,4.9-2.53,9.79-3.82,14.69c-0.41,1.57-0.77,3.15-1.07,4.74c-0.3,1.6-0.63,3.22-0.97,4.85
					L82.6,297.13z"/>
				<path class="st0" d="M127.36,285.92c-0.47,1.43-0.85,2.84-1.12,4.23c-0.27,1.4-0.34,2.81-0.2,4.23c0,1.7,0.46,2.82,1.38,3.36
					c0.92,0.55,2.07,0.68,3.47,0.41c1.39-0.27,2.94-0.83,4.64-1.68c1.69-0.85,3.36-1.8,5-2.86c1.63-1.05,3.11-2.11,4.44-3.16
					s2.33-1.95,3.01-2.7c1.77-1.64,3.47-3.33,5.1-5.1c1.63-1.77,3.1-3.74,4.39-5.92c0.47-0.74,0.9-1.55,1.27-2.39
					c0.37-0.85,0.77-1.68,1.18-2.5c0.47-1.02,1.19-1.36,2.14-1.02c1.02,0.34,1.4,1.02,1.12,2.04c-0.2,0.54-0.41,1.11-0.61,1.68
					c-0.2,0.58-0.44,1.14-0.72,1.68c-1.63,2.93-3.46,5.7-5.5,8.31c-2.04,2.62-4.35,4.99-6.93,7.09c-1.77,1.57-3.59,3.05-5.46,4.44
					c-1.87,1.4-3.89,2.6-6.07,3.62c-1.02,0.54-2.04,0.99-3.06,1.33c-1.02,0.34-2.1,0.58-3.26,0.71c-1.5,0.14-3.03,0.05-4.59-0.25
					c-1.57-0.3-3.03-0.9-4.38-1.78c-1.36-0.88-2.53-2.07-3.52-3.57s-1.62-3.36-1.89-5.61c-0.27-2.04-0.23-4.03,0.1-5.97
					c0.34-1.93,0.85-3.85,1.53-5.76c1.22-3.47,2.8-6.73,4.74-9.79c1.94-3.06,4.09-5.98,6.48-8.77c1.09-1.29,2.28-2.43,3.57-3.42
					c1.29-0.98,2.69-1.85,4.18-2.6c0.68-0.34,1.41-0.65,2.19-0.92c0.78-0.27,1.55-0.47,2.3-0.61c1.9-0.34,3.6-0.13,5.1,0.61
					c1.49,0.75,2.82,1.87,3.97,3.37c0.75,0.95,1.16,1.92,1.23,2.91c0.06,0.98-0.03,2.02-0.31,3.11c-0.61,2.59-1.6,4.87-2.96,6.83
					c-4.56,7.21-10.81,12.34-18.76,15.4L127.36,285.92z M129.5,280.3l0.2,0.2l2.45-1.22c2.58-1.5,4.96-3.18,7.14-5.05
					c2.17-1.87,4.08-4.09,5.71-6.68c0.61-0.95,1.16-1.95,1.63-3.01c0.48-1.05,0.82-2.16,1.02-3.32c0.13-0.54,0.22-1.09,0.25-1.63
					c0.03-0.54-0.12-1.09-0.46-1.64c-1.16,0.27-2.29,0.78-3.41,1.53c-1.12,0.75-2.16,1.62-3.11,2.6c-0.95,0.99-1.83,2.02-2.65,3.11
					s-1.53,2.07-2.14,2.96c-1.36,1.9-2.57,3.86-3.62,5.86C131.45,276.04,130.45,278.13,129.5,280.3z"/>
				<path class="st0" d="M161.82,298.25c1.57,0.34,3.2-0.24,4.9-1.73s3.33-3.38,4.9-5.66c1.56-2.28,3.03-4.68,4.38-7.19
					c1.36-2.51,2.48-4.59,3.37-6.22c0.47-1.02,1.09-2.04,1.83-3.06c0.41-0.68,0.81-1.07,1.22-1.17c0.41-0.1,0.99,0.01,1.73,0.35
					c0.95,0.48,1.7,1.02,2.24,1.64c0.88,0.75,1.12,1.7,0.71,2.85c-0.41,1.57-0.83,3.05-1.27,4.44c-0.44,1.4-0.8,2.77-1.07,4.13
					c0.41-0.48,0.83-0.92,1.27-1.33c0.44-0.41,0.83-0.78,1.18-1.12l11.32-11.63c0.48-0.48,0.87-0.73,1.18-0.77
					c0.3-0.03,0.69,0.09,1.17,0.36c0.81,0.54,0.92,1.16,0.3,1.83l-2.75,2.96l-14.38,15.3c-0.68,0.68-1.12,1.5-1.33,2.45
					c-0.89,3.4-1.75,6.74-2.6,10.05c-0.85,3.3-1.75,6.61-2.7,9.94c-0.95,3.4-2.06,6.73-3.32,10c-1.26,3.27-2.7,6.46-4.33,9.59
					c-1.23,2.45-2.72,4.76-4.49,6.93c-3.27,4.01-7.45,5.61-12.55,4.79c-3.39-0.61-5.3-2.62-5.71-6.02c-0.27-1.9-0.24-3.79,0.1-5.66
					c0.34-1.87,0.87-3.67,1.58-5.4c0.72-1.73,1.55-3.4,2.5-5c0.95-1.6,1.93-3.15,2.96-4.64c1.83-2.72,3.84-5.27,6.02-7.65
					c2.17-2.38,4.42-4.76,6.73-7.14c0.54-0.61,1.07-1.21,1.58-1.78c0.51-0.58,1.04-1.21,1.58-1.89l-1.02,0.61
					c-2.04,1.43-4.2,2.12-6.48,2.09c-2.28-0.03-4.4-0.83-6.37-2.39c-1.09-0.82-1.87-1.77-2.35-2.86c-0.47-1.09-0.78-2.28-0.92-3.57
					c-0.13-2.24-0.05-4.47,0.25-6.68c0.31-2.21,0.87-4.37,1.68-6.48c0.82-2.11,1.88-4.47,3.21-7.09c1.33-2.62,2.86-5.13,4.59-7.55
					c1.73-2.41,3.63-4.52,5.71-6.32c2.07-1.8,4.3-2.94,6.68-3.41c2.65-0.47,5.13-0.19,7.45,0.87c2.31,1.05,4.21,2.5,5.71,4.33
					c0.88,1.09,1.52,2.23,1.89,3.41c0.37,1.19,0.35,2.47-0.05,3.82c-0.13,0.48-0.29,0.92-0.46,1.33c-0.17,0.41-0.56,0.65-1.17,0.72
					c-0.47,0-0.99-0.17-1.53-0.51c-0.54-0.34-0.92-0.78-1.12-1.33c-0.13-0.27-0.2-0.54-0.2-0.81c0-0.27,0-0.58,0-0.92
					c0-0.68-0.08-1.4-0.25-2.14c-0.17-0.75-0.41-1.41-0.71-1.99c-0.3-0.58-0.73-1.02-1.28-1.33c-0.54-0.3-1.19-0.42-1.93-0.35
					c-1.3,0.2-2.52,0.64-3.67,1.33c-1.16,0.68-2.23,1.51-3.21,2.5c-0.99,0.99-1.89,2.02-2.7,3.11c-0.82,1.09-1.57,2.11-2.24,3.06
					c-1.57,2.18-3.01,4.73-4.34,7.65c-1.33,2.92-2.39,5.74-3.21,8.46c-0.82,2.72-1.28,5.04-1.38,6.94
					C160.55,297.2,160.94,298.18,161.82,298.25z M168.55,309.06l-1.02,0.92c-1.77,2.11-3.66,4.32-5.66,6.63
					c-2,2.31-3.79,4.73-5.35,7.24c-1.56,2.52-2.72,5.13-3.46,7.85c-0.75,2.72-0.78,5.58-0.1,8.57c0.27,0.75,0.6,1.22,0.97,1.43
					c0.37,0.2,0.75,0.24,1.12,0.1c0.37-0.14,0.76-0.39,1.17-0.77c0.41-0.37,0.82-0.8,1.22-1.27c0.96-1.3,1.78-2.64,2.5-4.03
					c0.71-1.39,1.38-2.87,1.98-4.43c1.36-3.47,2.55-6.95,3.57-10.45c1.02-3.5,2.01-7.05,2.96-10.66
					C168.52,309.98,168.55,309.6,168.55,309.06z"/>
				<path class="st0" d="M244.32,272.04c0.41-0.61,0.92-0.81,1.53-0.61c0.34,0.13,0.66,0.29,0.97,0.46c0.3,0.17,0.63,0.32,0.97,0.46
					c-0.14,0.34-0.24,0.59-0.3,0.76c-0.07,0.17-0.17,0.32-0.31,0.46c-1.83,2.24-3.76,4.39-5.76,6.43c-2,2.04-4.27,3.84-6.78,5.4
					c-0.75,0.48-1.55,0.9-2.4,1.28c-0.85,0.37-1.71,0.73-2.6,1.07c-0.55,0.2-0.99,0.42-1.33,0.66c-0.34,0.24-0.68,0.59-1.02,1.07
					c-1.22,1.77-2.53,3.43-3.92,5c-1.4,1.57-2.94,3.03-4.64,4.38c-1.29,1.02-2.67,1.77-4.13,2.25c-1.46,0.47-3.01,0.61-4.64,0.4
					c-2.04-0.27-3.93-0.93-5.66-1.99c-1.73-1.05-3.23-2.34-4.49-3.87c-1.26-1.53-2.22-3.23-2.91-5.1c-0.68-1.87-1.02-3.82-1.02-5.86
					c-0.07-3.87,0.47-7.53,1.63-10.96c1.16-3.43,2.99-6.65,5.51-9.64c0.88-0.95,1.65-1.94,2.29-2.96c0.64-1.02,1.24-2.14,1.78-3.36
					c0.75-1.77,1.7-3.37,2.86-4.8c1.15-1.43,2.51-2.72,4.08-3.87c4.01-2.86,8.26-3.23,12.75-1.12c5.91,2.79,9.14,7.58,9.69,14.38
					c0.41,5.71-0.58,11.01-2.96,15.91l-1.73,3.77c1.09-0.27,2.19-0.73,3.32-1.38c1.12-0.64,2.23-1.43,3.32-2.34
					c1.09-0.92,2.14-1.92,3.16-3.01S243.51,273.13,244.32,272.04z M207.1,278.67c-0.61,1.77-1.06,3.64-1.33,5.61
					c-0.27,1.97-0.34,3.81-0.2,5.51c0.2,2.24,0.71,3.77,1.53,4.59c0.81,0.82,1.78,1.18,2.91,1.07c1.12-0.1,2.34-0.58,3.67-1.43
					c1.33-0.85,2.57-1.85,3.72-3.01l2.34-2.65c-2.85-0.74-5.32-1.88-7.39-3.41C210.28,283.41,208.53,281.32,207.1,278.67z
					 M212.61,261.64c0.34,0.41,0.66,0.8,0.97,1.17c0.3,0.37,0.59,0.73,0.87,1.07c0.61,0.75,0.88,1.34,0.81,1.78
					c-0.06,0.44-0.51,0.94-1.33,1.48c-0.27,0.27-0.47,0.44-0.61,0.51c-0.89,0.61-1.55,1.29-1.99,2.04c-0.44,0.75-0.49,1.7-0.15,2.86
					v0.51c0.34,1.7,0.78,3.35,1.33,4.95c0.54,1.6,1.39,3.08,2.55,4.44c1.43,1.83,3.3,2.86,5.61,3.06c0.89,0.06,1.53-0.24,1.94-0.92
					c0.68-1.16,1.36-2.3,2.04-3.42c0.68-1.12,1.33-2.26,1.94-3.41c1.29-2.58,2.29-5.23,3.01-7.96c0.72-2.72,1-5.54,0.87-8.46
					c-0.06-1.7-0.32-3.34-0.76-4.9c-0.44-1.57-1.24-3.03-2.4-4.39c-0.81-0.88-1.83-1.29-3.06-1.22c-2.04,0.2-3.84,0.98-5.4,2.34
					c-1.43,1.16-2.63,2.46-3.62,3.93C214.22,258.57,213.36,260.08,212.61,261.64z"/>
				<path class="st0" d="M254.42,267.15c-1.09,2.79-1.9,5.52-2.45,8.21c-0.55,2.69-0.65,5.56-0.31,8.62l1.53-1.33l10.09-9.28
					l2.04-1.53c0.89-0.48,1.84-0.48,2.86,0c0.95,0.4,1.09,1.05,0.41,1.93c-0.13,0.14-0.27,0.27-0.41,0.41
					c-0.13,0.14-0.27,0.27-0.41,0.41l-14.17,14.07c-0.75,0.75-0.99,1.67-0.71,2.75c0.47,1.83,0.93,3.67,1.38,5.51
					c0.44,1.83,0.87,3.67,1.28,5.5c0.95,3.88,1.26,7.86,0.92,11.93c-0.27,6.32-3.23,11.15-8.87,14.48
					c-5.3,3.13-10.74,3.7-16.32,1.73c-0.47-0.13-0.92-0.32-1.33-0.56s-0.82-0.46-1.22-0.66c-1.97-1.16-3.13-3.03-3.47-5.61
					c-0.2-1.77-0.13-3.47,0.2-5.1c0.34-1.63,0.88-3.23,1.63-4.79c1.36-2.86,2.91-5.54,4.64-8.06c1.73-2.52,3.62-4.97,5.66-7.34
					c0.96-1.16,1.89-2.26,2.81-3.32c0.92-1.05,1.85-2.06,2.81-3.01c0.54-0.54,0.9-1.07,1.07-1.58c0.17-0.51,0.19-1.1,0.05-1.78
					c-0.34-1.9-0.56-3.8-0.66-5.71c-0.1-1.9-0.08-3.81,0.05-5.71c0.47-6.12,2.1-11.93,4.9-17.44c0.54-1.02,1.19-1.92,1.93-2.7
					c0.75-0.78,1.64-1.41,2.65-1.88c0.82-0.34,1.57-0.51,2.24-0.51c1.7,0.2,3.23,1.02,4.59,2.45c0.88,0.89,1.12,1.94,0.71,3.16
					c-0.41,1.7-0.44,3.47-0.1,5.3c0.13,0.54,0.27,1.07,0.4,1.58c0.14,0.51,0.48,0.94,1.02,1.28c0.27,0.2,0.47,0.44,0.61,0.71
					c0.2,0.34,0.25,0.66,0.15,0.97c-0.1,0.31-0.35,0.5-0.76,0.56c-0.41,0-0.82,0-1.23,0c-0.4,0-0.78-0.06-1.12-0.2
					C257.62,270.14,255.91,268.99,254.42,267.15z M245.55,298.05c-0.95,1.02-1.97,2.24-3.06,3.67c-1.09,1.43-2.12,2.92-3.11,4.49
					c-0.98,1.57-1.9,3.11-2.75,4.64c-0.85,1.53-1.48,2.87-1.88,4.03c-0.54,1.57-0.99,3.33-1.33,5.3c-0.34,1.76-0.14,3.53,0.61,5.3
					c0.34,0.81,0.7,1.29,1.07,1.43c0.37,0.13,0.97,0.03,1.78-0.3c4.42-1.97,7.31-5.44,8.67-10.4c0.61-2.45,0.9-4.91,0.87-7.39
					s-0.19-4.98-0.46-7.5L245.55,298.05z"/>
			</g>
		</g>
		<g>
			<path class="st0" d="M9.63,350.47c0.99,0,1.82,0.09,2.5,0.27c0.68,0.18,1.23,0.45,1.65,0.83c0.42,0.37,0.71,0.85,0.89,1.42
				c0.18,0.57,0.27,1.25,0.27,2.03c0,1.02-0.2,1.88-0.6,2.57c-0.4,0.69-1.07,1.2-2,1.52c1.22,0.29,2.09,0.82,2.59,1.6
				c0.5,0.77,0.75,1.83,0.75,3.18c0,0.78-0.1,1.48-0.32,2.08c-0.21,0.6-0.55,1.12-1.01,1.53c-0.46,0.42-1.06,0.74-1.81,0.96
				c-0.75,0.22-1.66,0.33-2.73,0.33c-1.09,0-2.02-0.01-2.8-0.04s-1.47-0.06-2.08-0.1c-0.61-0.04-1.19-0.1-1.72-0.16
				c-0.53-0.07-1.11-0.14-1.72-0.23v-17.77H9.63z M5.3,357.97h3.22c1,0,1.7-0.18,2.09-0.56c0.39-0.37,0.59-0.93,0.59-1.66
				c0-0.82-0.19-1.41-0.57-1.76c-0.38-0.36-1.09-0.54-2.13-0.54H5.3V357.97z M5.3,365.53c0.22,0.03,0.44,0.06,0.66,0.07
				c0.22,0.02,0.46,0.03,0.73,0.05c0.26,0.02,0.55,0.03,0.87,0.04c0.31,0.01,0.68,0.01,1.11,0.01c1.16,0,1.97-0.22,2.44-0.65
				c0.47-0.43,0.7-1.08,0.7-1.92c0-0.94-0.22-1.61-0.66-2.02s-1.26-0.61-2.45-0.61H5.3V365.53z"/>
			<path class="st0" d="M26.1,368.33v-17.87h3.85v17.87H26.1z"/>
			<path class="st0" d="M51.49,368.33l-6.74-12.66v12.66h-3.6v-17.87h4.7l6.76,12.69v-12.69h3.6v17.87H51.49z"/>
			<path class="st0" d="M79.44,368.33l-1.33-4.08h-6.36l-1.33,4.08h-4.11l5.95-17.87h5.36l5.95,17.87H79.44z M77.3,361.16l-2.37-7.4
				l-2.37,7.4H77.3z"/>
			<path class="st0" d="M100.78,350.03c1.02,0,1.94,0.07,2.78,0.21c0.83,0.15,1.6,0.33,2.29,0.55l-0.28,2.76
				c-0.78-0.09-1.54-0.15-2.27-0.2c-0.73-0.05-1.58-0.08-2.55-0.08c-0.73,0-1.36,0.1-1.87,0.29c-0.52,0.19-0.94,0.52-1.26,0.97
				c-0.32,0.45-0.56,1.05-0.7,1.8c-0.14,0.75-0.22,1.68-0.22,2.78c0,1.22,0.05,2.24,0.17,3.06c0.11,0.82,0.31,1.47,0.61,1.96
				c0.29,0.49,0.71,0.84,1.24,1.05c0.53,0.2,1.21,0.31,2.04,0.31c0.56,0,1.05,0,1.46-0.01s0.8-0.02,1.18-0.04
				c0.37-0.01,0.76-0.03,1.16-0.06s0.85-0.05,1.37-0.09l0.28,2.68c-0.65,0.2-1.41,0.39-2.28,0.56s-1.92,0.25-3.13,0.25
				c-1.59,0-2.9-0.17-3.96-0.51s-1.9-0.89-2.53-1.66c-0.63-0.77-1.07-1.77-1.33-3.01s-0.38-2.78-0.38-4.6c0-1.68,0.16-3.1,0.5-4.25
				c0.33-1.15,0.83-2.08,1.51-2.78c0.67-0.71,1.52-1.21,2.55-1.51C98.17,350.18,99.39,350.03,100.78,350.03z"/>
			<path class="st0" d="M116.58,368.33v-17.87h3.85v17.87H116.58z"/>
			<path class="st0" d="M139.63,350.08c1.26,0,2.38,0.16,3.36,0.48c0.99,0.32,1.83,0.84,2.52,1.56c0.69,0.71,1.22,1.65,1.58,2.79
				c0.37,1.15,0.55,2.55,0.55,4.2c0,1.68-0.12,3.14-0.37,4.35c-0.24,1.22-0.68,2.22-1.29,3.01c-0.61,0.79-1.43,1.37-2.46,1.75
				c-1.03,0.37-2.32,0.56-3.89,0.56c-1.59,0-2.9-0.17-3.96-0.51s-1.9-0.89-2.53-1.66c-0.63-0.77-1.07-1.77-1.33-3.01
				c-0.25-1.24-0.38-2.78-0.38-4.6c0-1.68,0.16-3.1,0.5-4.25c0.33-1.15,0.83-2.08,1.51-2.78c0.67-0.71,1.52-1.21,2.55-1.51
				c1.03-0.3,2.24-0.45,3.64-0.45V350.08z M139.57,353.32c-0.73,0-1.36,0.1-1.87,0.29c-0.52,0.2-0.94,0.52-1.26,0.97
				c-0.32,0.45-0.56,1.05-0.7,1.8c-0.14,0.75-0.22,1.67-0.22,2.78c0,1.23,0.05,2.24,0.17,3.06c0.11,0.82,0.31,1.48,0.61,1.97
				c0.3,0.49,0.71,0.84,1.24,1.04c0.53,0.2,1.21,0.31,2.04,0.31c0.82,0,1.48-0.11,1.99-0.34c0.51-0.23,0.91-0.6,1.2-1.11
				s0.49-1.17,0.6-1.96c0.11-0.8,0.16-1.77,0.16-2.91c0-1.09-0.08-2.01-0.24-2.76c-0.16-0.75-0.41-1.35-0.74-1.81
				c-0.33-0.46-0.75-0.79-1.24-1c-0.5-0.2-1.08-0.3-1.74-0.3V353.32z"/>
			<path class="st0" d="M168.85,368.33l-6.74-12.66v12.66h-3.6v-17.87h4.7l6.76,12.69v-12.69h3.6v17.87H168.85z"/>
			<path class="st0" d="M196.8,368.33l-1.33-4.08h-6.36l-1.33,4.08h-4.11l5.95-17.87h5.36l5.95,17.87H196.8z M194.66,361.16
				l-2.37-7.4l-2.37,7.4H194.66z"/>
			<path class="st0" d="M222.66,365.24v3.09H211.2v-17.87h3.85v14.78H222.66z"/>
			<path class="st0" d="M236.77,353.53v4.09h7.55v2.91h-7.55v4.72h8.6v3.09h-12.45v-17.87h12.17v3.09L236.77,353.53z"/>
			<path class="st0" d="M261.14,350.01c0.53,0,1.09,0.01,1.68,0.05c0.59,0.03,1.19,0.08,1.78,0.14c0.6,0.06,1.18,0.13,1.76,0.22
				s1.13,0.17,1.66,0.25l-0.3,2.94c-0.44-0.03-0.92-0.06-1.43-0.09s-1.01-0.05-1.51-0.08c-0.49-0.02-0.96-0.04-1.41-0.06
				c-0.44-0.02-0.81-0.02-1.12-0.02c-0.44,0-0.85,0.02-1.21,0.07c-0.37,0.05-0.68,0.15-0.93,0.29c-0.25,0.14-0.45,0.35-0.6,0.61
				s-0.22,0.6-0.22,1.01c0,0.49,0.11,0.85,0.34,1.09c0.23,0.23,0.63,0.42,1.19,0.57l4.55,1.35c0.47,0.15,0.93,0.36,1.35,0.61
				c0.42,0.25,0.8,0.59,1.12,1c0.32,0.41,0.58,0.9,0.75,1.49c0.18,0.59,0.27,1.29,0.27,2.11c0,1.02-0.16,1.86-0.5,2.52
				c-0.33,0.67-0.77,1.19-1.33,1.59c-0.55,0.39-1.18,0.67-1.89,0.83c-0.7,0.16-1.43,0.25-2.18,0.27c-0.54,0.01-1.16-0.01-1.83-0.06
				c-0.68-0.06-1.39-0.13-2.11-0.21c-0.72-0.08-1.44-0.18-2.15-0.29c-0.72-0.11-1.38-0.22-1.99-0.32l0.31-2.96
				c1.38,0.19,2.68,0.33,3.89,0.43c1.22,0.1,2.21,0.15,2.97,0.15c0.9,0,1.6-0.11,2.08-0.34c0.49-0.23,0.73-0.75,0.73-1.57
				c0-0.63-0.13-1.09-0.41-1.38c-0.27-0.29-0.64-0.5-1.1-0.64l-4.9-1.43c-0.53-0.15-0.99-0.34-1.4-0.57s-0.75-0.52-1.02-0.88
				c-0.27-0.36-0.48-0.79-0.61-1.29s-0.2-1.09-0.2-1.77c0-1.16,0.17-2.09,0.51-2.82c0.34-0.72,0.79-1.29,1.36-1.69
				c0.56-0.41,1.2-0.69,1.9-0.84c0.71-0.15,1.42-0.23,2.13-0.23L261.14,350.01z"/>
		</g>
		<g>
			<linearGradient id="SVGID_1_" gradientUnits="userSpaceOnUse" x1="148.8093" y1="42.7041" x2="201.6338" y2="83.4152">
				<stop  offset="0" style="stop-color:#29235C"/>
				<stop  offset="0.011" style="stop-color:#27265F"/>
				<stop  offset="0.0881" style="stop-color:#0E3D74"/>
				<stop  offset="0.1707" style="stop-color:#00548C"/>
				<stop  offset="0.2567" style="stop-color:#0069A2"/>
				<stop  offset="0.347" style="stop-color:#007AB6"/>
				<stop  offset="0.443" style="stop-color:#0088C6"/>
				<stop  offset="0.5464" style="stop-color:#0092D3"/>
				<stop  offset="0.661" style="stop-color:#0099DC"/>
				<stop  offset="0.7958" style="stop-color:#009DE2"/>
				<stop  offset="1" style="stop-color:#009FE3"/>
			</linearGradient>
			<path class="st1" d="M204.62,56.63c0,12.43-3.69,23.99-9.98,33.7c-5.34,8.25-12.58,15.14-21.1,20.08
				c-1.65,0.96-3.35,1.83-5.09,2.63c-2.46,1.13-5.37,0.63-7.28-1.29l-20.12-20.12c-4.15-4.15-4.15-10.95,0-15.1l0.73-0.73
				c0,0,15.72-15.38,19.17-19.17c3.45-3.79,24.72-26.85,7.01-56.63c1.92,0.86,3.78,1.81,5.59,2.86c8.53,4.94,15.76,11.82,21.1,20.08
				l-0.16,0.16c0.08-0.08,0.22-0.07,0.28,0.03C200.98,32.79,204.62,44.28,204.62,56.63z"/>
			<circle class="st2" cx="161.03" cy="218.04" r="18.42"/>
			<path class="st3" d="M173.98,204.98c-2.05-2.46-7.15-5.13-10.69-5.21c0,0,9.93,15.13,4.72,35.33c0,0,0.01,0,0.01,0
				C175.52,223.1,176.63,214.12,173.98,204.98z"/>
			<path class="st2" d="M204.62,178.49c0-12.43-3.69-23.99-9.98-33.7c-5.34-8.25-12.58-15.14-21.1-20.08
				c-1.65-0.96-3.35-1.83-5.09-2.63c-2.46-1.13-5.37-0.63-7.28,1.29l-20.12,20.12c-4.15,4.15-4.15,10.95,0,15.1l0.73,0.73
				c0,0,15.72,15.38,19.17,19.17c3.45,3.79,24.72,26.85,7.01,56.63c1.92-0.86,3.78-1.81,5.59-2.86c8.53-4.94,15.76-11.82,21.1-20.08
				l-0.16-0.16c0.08,0.08,0.22,0.07,0.28-0.03C200.98,202.33,204.62,190.84,204.62,178.49z"/>
			<path class="st3" d="M173.98,204.98c-2.05-2.46-7.15-5.13-10.69-5.21c0,0,9.93,15.13,4.72,35.33c0,0,0.01,0,0.01,0
				C175.52,223.1,176.63,214.12,173.98,204.98z"/>
			
				<linearGradient id="SVGID_00000080928405358432883250000010914436079455309496_" gradientUnits="userSpaceOnUse" x1="137.9317" y1="178.3028" x2="204.6237" y2="178.3028">
				<stop  offset="0" style="stop-color:#29235C"/>
				<stop  offset="0.8212" style="stop-color:#1D71B8"/>
			</linearGradient>
			<path style="fill:url(#SVGID_00000080928405358432883250000010914436079455309496_);" d="M204.62,178.49
				c0-12.43-3.69-23.99-9.98-33.7c-5.34-8.25-12.58-15.14-21.1-20.08c-1.65-0.96-3.35-1.83-5.09-2.63
				c-2.46-1.13-5.37-0.63-7.28,1.29l-20.12,20.12c-4.15,4.15-4.15,10.95,0,15.1l0.73,0.73c0,0,15.72,15.38,19.17,19.17
				c3.45,3.79,24.72,26.85,7.01,56.63c1.92-0.86,3.78-1.81,5.59-2.86c8.53-4.94,15.76-11.82,21.1-20.08l-0.16-0.16
				c0.08,0.08,0.22,0.07,0.28-0.03C200.98,202.33,204.62,190.84,204.62,178.49z"/>
			
				<linearGradient id="SVGID_00000108995544106660915480000012733747627555459220_" gradientUnits="userSpaceOnUse" x1="34.9742" y1="145.7475" x2="71.8163" y2="145.7475">
				<stop  offset="0" style="stop-color:#29235C"/>
				<stop  offset="0.8212" style="stop-color:#1D71B8"/>
			</linearGradient>
			<circle style="fill:url(#SVGID_00000108995544106660915480000012733747627555459220_);" cx="53.4" cy="145.75" r="18.42"/>
			<path class="st3" d="M66.21,158.93c2.5-2.01,5.26-7.05,5.4-10.59c0,0-15.31,9.65-35.42,4.07c0,0,0,0.01,0,0.01
				C48.07,160.13,57.03,161.41,66.21,158.93z"/>
			
				<linearGradient id="SVGID_00000052793503078310017530000004748605270002275202_" gradientUnits="userSpaceOnUse" x1="34.974" y1="89.5388" x2="71.8165" y2="89.5388">
				<stop  offset="0" style="stop-color:#29235C"/>
				<stop  offset="0.8212" style="stop-color:#1D71B8"/>
			</linearGradient>
			<circle style="fill:url(#SVGID_00000052793503078310017530000004748605270002275202_);" cx="53.4" cy="89.54" r="18.42"/>
			<path class="st3" d="M66.05,76.21c2.52,1.98,5.34,6.99,5.53,10.53c0,0-15.42-9.47-35.46-3.65c0,0,0-0.01,0-0.01
				C47.9,75.22,56.84,73.83,66.05,76.21z"/>
			
				<linearGradient id="SVGID_00000132077972886852657840000005332553412506768259_" gradientUnits="userSpaceOnUse" x1="36.2077" y1="153.3834" x2="149.7076" y2="153.3834">
				<stop  offset="0" style="stop-color:#29235C"/>
				<stop  offset="0.8212" style="stop-color:#E30613"/>
			</linearGradient>
			<path style="fill:url(#SVGID_00000132077972886852657840000005332553412506768259_);" d="M94.05,187.16
				c12.43-0.42,23.85-4.5,33.34-11.11c8.07-5.62,14.7-13.08,19.35-21.77c0.9-1.68,1.72-3.41,2.46-5.18c1.05-2.5,0.44-5.39-1.53-7.24
				l-20.79-19.43c-4.29-4.01-11.08-3.78-15.09,0.51l-0.7,0.75c0,0-14.84,16.23-18.52,19.81s-26,25.61-56.36,8.92
				c0.92,1.89,1.94,3.72,3.04,5.49c5.22,8.35,12.35,15.35,20.78,20.41l0.15-0.16c-0.08,0.08-0.06,0.22,0.04,0.28
				C70.1,184.32,81.7,187.58,94.05,187.16z"/>
			<path class="st8" d="M86.57,147.67c1.08-0.97,2.04-1.86,2.72-2.56l0.8-0.86c-0.7,0.73-1.86,1.86-3.39,3.2l-0.02,0.02
				C86.65,147.54,86.62,147.59,86.57,147.67z"/>
			<path class="st9" d="M86.71,147.46c-0.01,0-0.01,0.01-0.02,0.02c0,0,0,0,0,0L86.71,147.46z"/>
			<path class="st9" d="M83.88,150.02c-0.02,0.02-0.04,0.03-0.05,0.05c0.01-0.01,0.02-0.02,0.03-0.02
				C83.86,150.03,83.87,150.03,83.88,150.02z"/>
			<path class="st9" d="M78.73,153.84c1.83-1.05,3.6-2.45,5.09-3.77C82.07,151.48,80.38,152.71,78.73,153.84z"/>
			<path class="st9" d="M85.61,148.52c0.36-0.3,0.63-0.57,0.96-0.85c0.05-0.08,0.08-0.13,0.12-0.19L85.61,148.52z"/>
			
				<linearGradient id="SVGID_00000054977737476942411630000009934032557293360313_" gradientUnits="userSpaceOnUse" x1="36.2077" y1="81.7376" x2="149.7076" y2="81.7376">
				<stop  offset="0" style="stop-color:#29235C"/>
				<stop  offset="0.011" style="stop-color:#27265F"/>
				<stop  offset="0.0881" style="stop-color:#0E3D74"/>
				<stop  offset="0.1707" style="stop-color:#00548C"/>
				<stop  offset="0.2567" style="stop-color:#0069A2"/>
				<stop  offset="0.347" style="stop-color:#007AB6"/>
				<stop  offset="0.443" style="stop-color:#0088C6"/>
				<stop  offset="0.5464" style="stop-color:#0092D3"/>
				<stop  offset="0.661" style="stop-color:#0099DC"/>
				<stop  offset="0.7958" style="stop-color:#009DE2"/>
				<stop  offset="1" style="stop-color:#009FE3"/>
			</linearGradient>
			<path style="fill:url(#SVGID_00000054977737476942411630000009934032557293360313_);" d="M94.05,47.96
				c12.43,0.42,23.85,4.5,33.34,11.11c8.07,5.62,14.7,13.08,19.35,21.77c0.9,1.68,1.72,3.41,2.46,5.18c1.05,2.5,0.44,5.39-1.53,7.24
				l-20.79,19.43c-4.29,4.01-11.08,3.78-15.09-0.51l-0.7-0.75c0,0-14.84-16.23-18.52-19.81c-3.67-3.58-26-25.61-56.36-8.92
				c0.92-1.89,1.94-3.72,3.04-5.49c5.22-8.35,12.35-15.35,20.78-20.41l0.15,0.16c-0.08-0.08-0.06-0.22,0.04-0.28
				C70.1,50.8,81.7,47.54,94.05,47.96z"/>
			<path class="st3" d="M151.51,43.52c-2.67,2.63-8.9,5.16-13.03,4.85c0,0,13.28-16.47,9.51-40.58c0,0,0.01,0,0.01,0
				C155.36,22.62,155.63,33.19,151.51,43.52z"/>
			<circle class="st11" cx="137.93" cy="26.86" r="21.54"/>
			
				<linearGradient id="SVGID_00000088122999241620862460000010656555596812717209_" gradientUnits="userSpaceOnUse" x1="116.3945" y1="26.8646" x2="159.4689" y2="26.8646">
				<stop  offset="0" style="stop-color:#29235C"/>
				<stop  offset="0.0162" style="stop-color:#2F265C"/>
				<stop  offset="0.1323" style="stop-color:#573B5F"/>
				<stop  offset="0.2516" style="stop-color:#7F5660"/>
				<stop  offset="0.3717" style="stop-color:#A3715D"/>
				<stop  offset="0.4926" style="stop-color:#C18956"/>
				<stop  offset="0.6146" style="stop-color:#DA9D4C"/>
				<stop  offset="0.7382" style="stop-color:#ECAC41"/>
				<stop  offset="0.8644" style="stop-color:#F7B639"/>
				<stop  offset="0.9972" style="stop-color:#FBB936"/>
			</linearGradient>
			<circle style="fill:url(#SVGID_00000088122999241620862460000010656555596812717209_);" cx="137.93" cy="26.86" r="21.54"/>
		</g>
	</g>
	<g>
		<path class="st9" d="M18.64,393.86l-0.59-13.2l-4.01,10.39H9.8L5.8,380.71l-0.59,13.17h-3.5l0.79-17.87h5.31l4.11,11.79
			l4.11-11.79h5.31l0.79,17.87L18.64,393.86z"/>
		<path class="st9" d="M36.35,379.08v4.08h7.56v2.91h-7.56v4.72h8.6v3.09H32.5v-17.87h12.18v3.09L36.35,379.08z"/>
		<path class="st9" d="M64.74,393.88L58,381.22v12.66h-3.6v-17.87h4.7l6.76,12.69v-12.69h3.6v17.87H64.74z"/>
		<path class="st9" d="M87.23,376.04c1.19,0,2.25,0.14,3.19,0.42c0.94,0.28,1.73,0.75,2.37,1.42c0.65,0.66,1.14,1.54,1.47,2.64
			s0.5,2.47,0.5,4.12c0,1.69-0.11,3.14-0.33,4.35c-0.22,1.22-0.62,2.22-1.19,3.01c-0.57,0.79-1.34,1.37-2.31,1.75
			s-2.2,0.56-3.7,0.56c-0.92,0-1.71-0.01-2.36-0.04c-0.66-0.03-1.26-0.07-1.8-0.14c-0.54-0.07-1.07-0.16-1.57-0.27
			s-1.06-0.24-1.67-0.4v-17.46L87.23,376.04z M83.73,390.72c0.25,0.08,0.49,0.15,0.7,0.2c0.21,0.05,0.44,0.09,0.69,0.13
			c0.25,0.04,0.51,0.06,0.8,0.08c0.29,0.02,0.63,0.03,1.02,0.03c0.75,0,1.37-0.12,1.85-0.36c0.49-0.24,0.87-0.62,1.16-1.14
			c0.29-0.52,0.49-1.19,0.61-2c0.12-0.82,0.18-1.8,0.18-2.96c0-1.11-0.08-2.03-0.25-2.76c-0.17-0.73-0.42-1.31-0.74-1.75
			c-0.32-0.43-0.72-0.74-1.2-0.92S87.53,379,86.92,379h-3.24L83.73,390.72z"/>
		<path class="st9" d="M112.75,375.63c1.26,0,2.38,0.16,3.37,0.49c0.99,0.32,1.83,0.84,2.51,1.56c0.69,0.71,1.22,1.65,1.58,2.79
			c0.37,1.15,0.55,2.55,0.55,4.2c0,1.69-0.12,3.14-0.37,4.35c-0.25,1.22-0.68,2.22-1.29,3.01s-1.43,1.37-2.46,1.75
			c-1.03,0.38-2.33,0.56-3.89,0.56c-1.58,0-2.9-0.17-3.96-0.51c-1.06-0.34-1.9-0.89-2.53-1.66c-0.63-0.77-1.07-1.77-1.33-3.01
			c-0.25-1.24-0.38-2.77-0.38-4.59c0-1.68,0.17-3.1,0.5-4.25c0.33-1.15,0.83-2.08,1.51-2.78c0.67-0.71,1.52-1.21,2.55-1.51
			s2.24-0.45,3.64-0.45V375.63z M112.7,378.87c-0.73,0-1.36,0.1-1.88,0.29c-0.52,0.2-0.94,0.52-1.26,0.97
			c-0.32,0.45-0.56,1.05-0.7,1.8c-0.14,0.75-0.22,1.68-0.22,2.78c0,1.22,0.05,2.25,0.17,3.06c0.11,0.82,0.31,1.47,0.61,1.96
			c0.3,0.49,0.71,0.84,1.24,1.05c0.53,0.2,1.21,0.31,2.04,0.31c0.82,0,1.48-0.12,1.99-0.34s0.91-0.6,1.2-1.11
			c0.29-0.51,0.49-1.17,0.6-1.97c0.11-0.8,0.17-1.77,0.17-2.91c0-1.09-0.08-2.01-0.24-2.76s-0.41-1.35-0.74-1.81
			c-0.33-0.46-0.74-0.79-1.24-1c-0.49-0.2-1.07-0.31-1.74-0.31V378.87z"/>
		<path class="st9" d="M134.02,390.79h8.91v3.09h-13.55v-3.32l8.78-11.46h-8.3v-3.09h12.84v3.34L134.02,390.79z"/>
		<path class="st9" d="M164.5,393.88l-1.33-4.08h-6.36l-1.33,4.08h-4.11l5.95-17.87h5.36l5.95,17.87H164.5z M162.35,386.71
			l-2.37-7.4l-2.37,7.4H162.35z"/>
		<path class="st9" d="M197.53,375.99c0.71,0,1.39,0.08,2.03,0.25c0.64,0.17,1.2,0.46,1.7,0.87c0.49,0.41,0.88,0.97,1.17,1.67
			c0.29,0.71,0.43,1.6,0.43,2.67c0,0.58-0.05,1.08-0.15,1.51c-0.1,0.43-0.29,0.82-0.56,1.17c-0.27,0.36-0.63,0.7-1.08,1.03
			c-0.45,0.33-1.03,0.69-1.75,1.06l-3.27,1.79c-0.37,0.2-0.75,0.45-1.12,0.74s-0.6,0.73-0.66,1.33l-0.03,0.74h8.63v3.09h-12.56
			v-4.01c0-0.71,0.12-1.32,0.37-1.83c0.25-0.5,0.55-0.93,0.92-1.29s0.76-0.66,1.19-0.91c0.43-0.25,0.83-0.47,1.2-0.68l3.37-1.84
			c0.32-0.17,0.59-0.32,0.8-0.46s0.37-0.27,0.49-0.41c0.11-0.14,0.19-0.29,0.23-0.45c0.04-0.16,0.06-0.35,0.06-0.57
			c0-0.42-0.06-0.78-0.18-1.06c-0.12-0.28-0.28-0.51-0.48-0.68c-0.21-0.17-0.45-0.28-0.73-0.34c-0.28-0.06-0.58-0.09-0.91-0.09
			c-0.36,0-0.76,0.01-1.21,0.03c-0.45,0.02-0.92,0.04-1.39,0.06c-0.48,0.03-0.94,0.05-1.38,0.09c-0.44,0.03-0.83,0.06-1.15,0.08
			l-0.43-3.04c0.41-0.05,0.89-0.11,1.46-0.17s1.14-0.12,1.74-0.17c0.59-0.05,1.18-0.09,1.76-0.13c0.58-0.03,1.09-0.05,1.53-0.05
			L197.53,375.99z"/>
		<path class="st9" d="M219.15,375.99c1.12,0,2.12,0.16,3,0.47c0.88,0.32,1.61,0.83,2.21,1.53s1.05,1.62,1.37,2.74
			c0.31,1.12,0.47,2.48,0.47,4.08c0,1.65-0.11,3.07-0.32,4.26s-0.58,2.17-1.11,2.95s-1.25,1.34-2.17,1.71
			c-0.92,0.37-2.08,0.55-3.47,0.55c-1.41,0-2.58-0.16-3.51-0.48c-0.93-0.32-1.66-0.86-2.21-1.61s-0.93-1.73-1.15-2.95
			c-0.22-1.22-0.33-2.71-0.33-4.48c0-1.63,0.14-3.01,0.42-4.12c0.28-1.11,0.71-2.02,1.3-2.71c0.59-0.69,1.34-1.18,2.25-1.48
			c0.91-0.3,1.99-0.45,3.23-0.45L219.15,375.99z M219.13,379.18c-0.58,0-1.08,0.08-1.49,0.24c-0.42,0.16-0.76,0.46-1.03,0.88
			c-0.27,0.42-0.47,1.01-0.6,1.75s-0.19,1.69-0.19,2.85c0,1.26,0.05,2.29,0.15,3.1s0.28,1.44,0.52,1.9
			c0.25,0.46,0.58,0.78,1.01,0.96c0.43,0.18,0.97,0.27,1.63,0.27c0.65,0,1.18-0.1,1.6-0.31s0.75-0.54,1-1.02
			c0.25-0.48,0.42-1.11,0.51-1.9c0.09-0.79,0.14-1.77,0.14-2.95c0-1.14-0.07-2.08-0.22-2.82c-0.14-0.74-0.36-1.33-0.64-1.76
			c-0.28-0.43-0.62-0.74-1.02-0.92c-0.4-0.18-0.86-0.27-1.39-0.27H219.13z"/>
		<path class="st9" d="M241.85,375.99c0.71,0,1.39,0.08,2.03,0.25c0.64,0.17,1.2,0.46,1.7,0.87c0.49,0.41,0.88,0.97,1.17,1.67
			c0.29,0.71,0.43,1.6,0.43,2.67c0,0.58-0.05,1.08-0.15,1.51c-0.1,0.43-0.29,0.82-0.56,1.17c-0.27,0.36-0.63,0.7-1.08,1.03
			c-0.45,0.33-1.03,0.69-1.75,1.06l-3.27,1.79c-0.37,0.2-0.75,0.45-1.12,0.74s-0.6,0.73-0.66,1.33l-0.03,0.74h8.63v3.09h-12.56
			v-4.01c0-0.71,0.12-1.32,0.37-1.83c0.25-0.5,0.55-0.93,0.92-1.29s0.76-0.66,1.19-0.91c0.43-0.25,0.83-0.47,1.2-0.68l3.37-1.84
			c0.32-0.17,0.59-0.32,0.8-0.46s0.37-0.27,0.49-0.41c0.11-0.14,0.19-0.29,0.23-0.45c0.04-0.16,0.06-0.35,0.06-0.57
			c0-0.42-0.06-0.78-0.18-1.06c-0.12-0.28-0.28-0.51-0.48-0.68c-0.21-0.17-0.45-0.28-0.73-0.34c-0.28-0.06-0.58-0.09-0.91-0.09
			c-0.36,0-0.76,0.01-1.21,0.03c-0.45,0.02-0.92,0.04-1.39,0.06c-0.48,0.03-0.94,0.05-1.38,0.09c-0.44,0.03-0.83,0.06-1.15,0.08
			l-0.43-3.04c0.41-0.05,0.89-0.11,1.46-0.17s1.14-0.12,1.74-0.17c0.59-0.05,1.18-0.09,1.76-0.13c0.58-0.03,1.09-0.05,1.53-0.05
			L241.85,375.99z"/>
		<path class="st9" d="M262.96,376.01c1.09,0,2.05,0.04,2.87,0.13c0.83,0.08,1.64,0.21,2.44,0.38l-0.18,2.68
			c-0.78-0.07-1.55-0.12-2.3-0.17c-0.75-0.04-1.64-0.06-2.68-0.06c-0.54,0-1.02,0.08-1.42,0.23c-0.4,0.15-0.73,0.41-0.98,0.78
			c-0.25,0.37-0.44,0.85-0.56,1.47c-0.12,0.61-0.18,1.37-0.18,2.27c0.73-0.36,1.41-0.63,2.03-0.82s1.25-0.28,1.88-0.28
			c1.09,0,2.01,0.12,2.76,0.36c0.75,0.24,1.35,0.6,1.81,1.08c0.46,0.49,0.79,1.1,0.98,1.84s0.29,1.62,0.29,2.64
			c0,0.95-0.12,1.79-0.34,2.5c-0.23,0.71-0.6,1.32-1.11,1.8c-0.51,0.49-1.18,0.85-2.02,1.1c-0.83,0.25-1.86,0.37-3.06,0.37
			c-1.4,0-2.54-0.16-3.45-0.48s-1.61-0.86-2.13-1.6c-0.52-0.74-0.88-1.72-1.08-2.95c-0.2-1.23-0.31-2.73-0.31-4.52
			c0-1.63,0.13-3.01,0.4-4.12c0.26-1.11,0.67-2.02,1.23-2.71c0.55-0.69,1.25-1.18,2.11-1.48c0.85-0.3,1.86-0.45,3.04-0.45H262.96z
			 M263.14,385.38c-0.49,0-0.99,0.08-1.49,0.24s-1.06,0.4-1.67,0.73c0,0.95,0.05,1.75,0.15,2.4c0.1,0.65,0.27,1.16,0.51,1.54
			s0.56,0.66,0.97,0.82c0.41,0.16,0.91,0.24,1.51,0.24c1.07,0,1.83-0.25,2.26-0.74c0.43-0.49,0.65-1.23,0.65-2.2
			c0-1.07-0.2-1.84-0.61-2.31c-0.41-0.47-1.16-0.7-2.25-0.7L263.14,385.38z"/>
	</g>
</g>
</svg>
